<?xml version="1.0" encoding="utf-8"?>
<!-- Generator: Adobe Illustrator 23.1.0, SVG Export Plug-In . SVG Version: 6.00 Build 0)  -->
<svg version="1.1" id="Layer_1" xmlns="http://www.w3.org/2000/svg" xmlns:xlink="http://www.w3.org/1999/xlink" x="0px" y="0px"
	 viewBox="0 0 127 127" style="enable-background:new 0 0 127 127;" xml:space="preserve">
<style type="text/css">
	.st0{opacity:0.75;}
	.st1{fill:#F74DB2;}
	.st2{fill:#00FFF2;}
	.st3{opacity:0.25;}
	.st4{fill:#3DF256;}
</style>
<g>
	<g class="st0">
		<polygon class="st1" points="95.88,83.45 82.17,97.85 54.41,127 40.7,112.61 68.47,83.45 44.17,57.94 30.46,43.55 71.93,0 
			85.64,14.39 57.88,43.55 82.17,69.06 		"/>
	</g>
	<g class="st0">
		<polygon class="st2" points="100.21,82.88 85.08,96.51 54.44,124.11 39.3,110.48 69.95,82.88 43.13,58.72 28,45.09 73.78,3.85 
			88.91,17.48 58.26,45.08 85.08,69.24 		"/>
	</g>
	<g class="st3">
		<polygon class="st4" points="93.63,79.62 81.07,92.25 55.62,117.82 43.05,105.19 68.5,79.62 46.23,57.24 33.66,44.61 71.68,6.41 
			84.24,19.04 58.8,44.61 81.07,66.99 		"/>
	</g>
</g>
</svg>
