<?xml version="1.0" encoding="utf-8"?>
<!-- Generator: Adobe Illustrator 22.0.0, SVG Export Plug-In . SVG Version: 6.00 Build 0)  -->
<svg version="1.1" id="Layer_1" xmlns="http://www.w3.org/2000/svg" xmlns:xlink="http://www.w3.org/1999/xlink" x="0px" y="0px"
	 viewBox="0 0 239.1 216.2" style="enable-background:new 0 0 239.1 216.2;" xml:space="preserve">
<style type="text/css">
	.st0{fill:url(#SVGID_1_);}
	.st1{fill:#BCBEC0;}
	.st2{fill:url(#SVGID_2_);}
	.st3{fill:#808285;}
	.st4{fill:url(#SVGID_3_);}
	.st5{fill:url(#SVGID_4_);}
	.st6{fill:url(#SVGID_5_);}
	.st7{opacity:0.6;fill:url(#SVGID_6_);}
	.st8{fill:url(#SVGID_7_);}
	.st9{fill:url(#SVGID_8_);}
	.st10{fill:url(#SVGID_9_);}
	.st11{fill:url(#SVGID_10_);}
	.st12{fill:url(#SVGID_11_);}
	.st13{opacity:0.6;fill:url(#SVGID_12_);}
	.st14{fill:url(#SVGID_13_);}
	.st15{fill:url(#SVGID_14_);}
	.st16{fill:url(#SVGID_15_);}
	.st17{fill:url(#SVGID_16_);}
	.st18{fill:url(#SVGID_17_);}
	.st19{opacity:0.6;fill:url(#SVGID_18_);}
</style>
<g>
	<g>
		<linearGradient id="SVGID_1_" gradientUnits="userSpaceOnUse" x1="116.4145" y1="71.9257" x2="75.072" y2="152.7314">
			<stop  offset="0" style="stop-color:#D1E4A5"/>
			<stop  offset="0.5" style="stop-color:#ACD479"/>
			<stop  offset="1" style="stop-color:#76B83F"/>
		</linearGradient>
		<polygon class="st0" points="115.2,73.4 26.7,124.8 75.5,153 164,101.5 		"/>
		<g>
			<path class="st1" d="M75.5,147.7l-39.8-23l79.5-46.2l39.8,23L75.5,147.7z M44.7,124.8l30.8,17.8l70.5-41l-30.8-17.8L44.7,124.8z"
				/>
		</g>
		<linearGradient id="SVGID_2_" gradientUnits="userSpaceOnUse" x1="75.377" y1="139.5315" x2="163.9502" y2="139.5315">
			<stop  offset="0" style="stop-color:#D1E4A5"/>
			<stop  offset="0.5" style="stop-color:#ACD479"/>
			<stop  offset="1" style="stop-color:#76B83F"/>
		</linearGradient>
		<polygon class="st2" points="75.5,153 75.4,177.5 163.8,126.1 164,101.5 		"/>
		<polygon class="st3" points="75.5,153 75.4,177.5 163.8,126.1 164,101.5 		"/>
		<linearGradient id="SVGID_3_" gradientUnits="userSpaceOnUse" x1="26.583" y1="151.1528" x2="75.4785" y2="151.1528">
			<stop  offset="0" style="stop-color:#D1E4A5"/>
			<stop  offset="0.5" style="stop-color:#ACD479"/>
			<stop  offset="1" style="stop-color:#76B83F"/>
		</linearGradient>
		<polygon class="st4" points="26.7,124.8 26.6,149.4 75.4,177.5 75.5,153 		"/>
		<polygon class="st1" points="26.7,124.8 26.6,149.4 75.4,177.5 75.5,153 		"/>
		<g>
			<path class="st1" d="M85.4,119c-3.1-1.8-7.4-2.8-11.7-2.8s-8.6,1-11.7,2.8c-2.9,1.7-4.6,4-4.6,6.4c0,2.4,1.7,4.7,4.7,6.5
				c3.1,1.8,7.4,2.8,11.7,2.8h0c4.4,0,8.6-1,11.7-2.8c2.9-1.7,4.6-4,4.6-6.4C90.1,123,88.4,120.7,85.4,119z M83.6,128.5
				c-2.5,1.5-6.1,2.3-9.8,2.3v1.9l0-1.9c-3.7,0-7.3-0.8-9.8-2.3c-2.1-1.2-2.8-2.5-2.8-3.2c0-0.7,0.7-1.9,2.7-3.1
				c2.5-1.5,6.1-2.3,9.8-2.3c3.7,0,7.3,0.8,9.8,2.3c2.1,1.2,2.8,2.5,2.8,3.2C86.4,126.1,85.6,127.4,83.6,128.5z"/>
			<path class="st1" d="M81,126.4c-0.1-0.6-0.6-1.2-1.6-1.7c-0.6-0.4-1.2-0.6-1.8-0.7c-0.6-0.1-1.1-0.2-1.6-0.2
				c-0.5,0-1.3,0.1-2.4,0.3c-1.3,0.2-2.1,0.3-2.5,0.3c-0.3,0-0.7-0.1-1.2-0.4c-0.3-0.2-0.4-0.3-0.5-0.4c0-0.1,0-0.2,0.2-0.3
				c0.2-0.1,0.4-0.2,0.6-0.1c0.2,0.1,0.6,0.2,1,0.5l0.5,0.3l2.7-1.6c-0.2-0.1-0.4-0.2-0.5-0.3c-0.8-0.5-1.6-0.7-2.5-0.7
				c-0.9,0-1.8,0.2-2.7,0.6l-0.9-0.5l-1.3,0.7l0.9,0.5c-0.8,0.6-1.2,1.2-1.2,1.7c0,0.5,0.4,1,1.2,1.5c0.6,0.3,1.2,0.6,1.8,0.7
				c0.7,0.1,1.3,0.2,1.8,0.2c0.5,0,1.5-0.1,2.8-0.3c0.8-0.1,1.4-0.1,1.7,0c0.3,0.1,0.8,0.3,1.4,0.7c0.2,0.1,0.4,0.3,0.4,0.4
				c0,0.1,0,0.2-0.2,0.3c-0.2,0.1-0.4,0.2-0.7,0.1c-0.2-0.1-0.7-0.3-1.5-0.7l-0.7-0.4l-2.7,1.6l0.5,0.3c1.2,0.7,2.3,1,3.4,1
				c1,0,1.9-0.2,2.7-0.6l1.1,0.6l1.3-0.7l-1-0.6C80.8,127.6,81.1,127,81,126.4z"/>
		</g>
		<g>
			<path class="st1" d="M127.4,94.5c-3.1-1.8-7.4-2.8-11.7-2.8s-8.6,1-11.7,2.8c-2.9,1.7-4.6,4-4.6,6.4c0,2.4,1.7,4.7,4.7,6.5
				c3.1,1.8,7.4,2.8,11.7,2.8h0c4.4,0,8.6-1,11.7-2.8c2.9-1.7,4.6-4,4.6-6.4C132.1,98.6,130.4,96.2,127.4,94.5z M125.6,104.1
				c-2.5,1.5-6.1,2.3-9.8,2.3v1.9l0-1.9c-3.7,0-7.3-0.8-9.8-2.3c-2.1-1.2-2.8-2.5-2.8-3.2c0-0.7,0.7-1.9,2.7-3.1
				c2.5-1.5,6.1-2.3,9.8-2.3c3.7,0,7.3,0.8,9.8,2.3c2.1,1.2,2.8,2.5,2.8,3.2C128.4,101.7,127.6,102.9,125.6,104.1z"/>
			<path class="st1" d="M123,102c-0.1-0.6-0.6-1.2-1.6-1.7c-0.6-0.4-1.2-0.6-1.8-0.7c-0.6-0.1-1.1-0.2-1.6-0.2
				c-0.5,0-1.3,0.1-2.4,0.3c-1.3,0.2-2.1,0.3-2.5,0.3c-0.3,0-0.7-0.1-1.2-0.4c-0.3-0.1-0.4-0.3-0.5-0.4c0-0.1,0-0.2,0.2-0.3
				c0.2-0.1,0.4-0.2,0.6-0.1c0.2,0.1,0.6,0.2,1,0.5l0.5,0.3l2.7-1.6c-0.2-0.1-0.4-0.2-0.5-0.3c-0.8-0.5-1.6-0.7-2.5-0.7
				c-0.9,0-1.8,0.2-2.7,0.6l-0.9-0.5l-1.3,0.7l0.9,0.5c-0.8,0.6-1.2,1.2-1.2,1.7c0,0.5,0.4,1,1.2,1.5c0.6,0.3,1.2,0.6,1.8,0.7
				c0.7,0.1,1.3,0.2,1.8,0.2c0.5,0,1.5-0.1,2.8-0.3c0.8-0.1,1.4-0.1,1.7,0c0.3,0.1,0.8,0.3,1.4,0.7c0.2,0.1,0.4,0.3,0.4,0.4
				c0,0.1,0,0.2-0.2,0.3c-0.2,0.1-0.4,0.2-0.7,0.1c-0.2-0.1-0.7-0.3-1.5-0.7l-0.7-0.4l-2.7,1.6l0.5,0.3c1.2,0.7,2.3,1,3.4,1
				c1,0,1.9-0.2,2.7-0.6l1.1,0.6l1.3-0.7l-1-0.6C122.8,103.2,123.1,102.5,123,102z"/>
		</g>
		<linearGradient id="SVGID_4_" gradientUnits="userSpaceOnUse" x1="70.0015" y1="95.6664" x2="116.23" y2="127.6129">
			<stop  offset="0" style="stop-color:#FFE7A3"/>
			<stop  offset="0.5" style="stop-color:#FFCA05"/>
			<stop  offset="1" style="stop-color:#FAAC18"/>
		</linearGradient>
		<polygon class="st5" points="80.9,93.3 61,104.9 109.8,133.1 129.7,121.4 		"/>
		<linearGradient id="SVGID_5_" gradientUnits="userSpaceOnUse" x1="119.7143" y1="125.9289" x2="119.7143" y2="163.5092">
			<stop  offset="0" style="stop-color:#FFE7A3"/>
			<stop  offset="0.5" style="stop-color:#FFCA05"/>
			<stop  offset="1" style="stop-color:#FAAC18"/>
		</linearGradient>
		<polygon class="st6" points="109.8,157.5 129.7,146 129.7,121.5 109.8,133 		"/>
		
			<radialGradient id="SVGID_6_" cx="954.7263" cy="-288.4687" r="2.4382" gradientTransform="matrix(0.5207 0 0 5.0384 -421.749 1618.6589)" gradientUnits="userSpaceOnUse">
			<stop  offset="0" style="stop-color:#FFFFFF;stop-opacity:0.7"/>
			<stop  offset="1" style="stop-color:#FFFFFF;stop-opacity:0"/>
		</radialGradient>
		<path class="st7" d="M76.6,165.2c0,6.8-0.6,12.3-1.3,12.3c-0.7,0-1.3-5.5-1.3-12.3c0-6.8,0.6-12.3,1.3-12.3
			C76.1,153,76.6,158.5,76.6,165.2z"/>
	</g>
	<g>
		<linearGradient id="SVGID_7_" gradientUnits="userSpaceOnUse" x1="165.5349" y1="99.4331" x2="124.1924" y2="180.2389">
			<stop  offset="0" style="stop-color:#D1E4A5"/>
			<stop  offset="0.5" style="stop-color:#ACD479"/>
			<stop  offset="1" style="stop-color:#76B83F"/>
		</linearGradient>
		<polygon class="st8" points="164.3,100.9 75.8,152.3 124.6,180.5 213.1,129 		"/>
		<g>
			<path class="st1" d="M124.6,175.2l-39.8-23l79.5-46.2l39.8,23L124.6,175.2z M93.8,152.3l30.8,17.8l70.5-41l-30.8-17.8L93.8,152.3
				z"/>
		</g>
		<linearGradient id="SVGID_8_" gradientUnits="userSpaceOnUse" x1="124.4971" y1="167.0391" x2="213.0703" y2="167.0391">
			<stop  offset="0" style="stop-color:#D1E4A5"/>
			<stop  offset="0.5" style="stop-color:#ACD479"/>
			<stop  offset="1" style="stop-color:#76B83F"/>
		</linearGradient>
		<polygon class="st9" points="124.6,180.5 124.5,205 213,153.6 213.1,129 		"/>
		<polygon class="st3" points="124.6,180.5 124.5,205 213,153.6 213.1,129 		"/>
		<linearGradient id="SVGID_9_" gradientUnits="userSpaceOnUse" x1="75.7041" y1="178.6602" x2="124.5996" y2="178.6602">
			<stop  offset="0" style="stop-color:#D1E4A5"/>
			<stop  offset="0.5" style="stop-color:#ACD479"/>
			<stop  offset="1" style="stop-color:#76B83F"/>
		</linearGradient>
		<polygon class="st10" points="75.8,152.3 75.7,176.9 124.5,205 124.6,180.5 		"/>
		<polygon class="st1" points="75.8,152.3 75.7,176.9 124.5,205 124.6,180.5 		"/>
		<g>
			<path class="st1" d="M134.6,146.5c-3.1-1.8-7.4-2.8-11.7-2.8c-4.4,0-8.6,1-11.7,2.8c-2.9,1.7-4.6,4-4.6,6.4
				c0,2.4,1.7,4.7,4.7,6.5c3.1,1.8,7.4,2.8,11.7,2.8h0c4.4,0,8.6-1,11.7-2.8c2.9-1.7,4.6-4,4.6-6.4
				C139.3,150.5,137.5,148.2,134.6,146.5z M132.7,156c-2.5,1.5-6.1,2.3-9.8,2.3v1.9l0-1.9c-3.7,0-7.3-0.8-9.8-2.3
				c-2.1-1.2-2.8-2.5-2.8-3.2c0-0.7,0.7-1.9,2.7-3.1c2.5-1.5,6.1-2.3,9.8-2.3c3.7,0,7.3,0.8,9.8,2.3c2.1,1.2,2.8,2.5,2.8,3.2
				C135.5,153.6,134.8,154.9,132.7,156z"/>
			<path class="st1" d="M130.2,153.9c-0.1-0.6-0.6-1.2-1.6-1.7c-0.6-0.4-1.2-0.6-1.8-0.7c-0.6-0.1-1.1-0.2-1.6-0.2
				c-0.5,0-1.3,0.1-2.4,0.3c-1.3,0.2-2.1,0.3-2.5,0.3c-0.3,0-0.7-0.1-1.2-0.4c-0.3-0.1-0.4-0.3-0.5-0.4c0-0.1,0-0.2,0.2-0.3
				c0.2-0.1,0.4-0.2,0.6-0.1c0.2,0.1,0.6,0.2,1,0.5l0.5,0.3l2.7-1.6c-0.2-0.1-0.4-0.2-0.5-0.3c-0.8-0.5-1.6-0.7-2.5-0.7
				c-0.9,0-1.8,0.2-2.7,0.6l-0.9-0.5l-1.3,0.7l0.9,0.5c-0.8,0.6-1.2,1.2-1.2,1.7c0,0.5,0.4,1,1.2,1.5c0.6,0.3,1.2,0.6,1.8,0.7
				c0.7,0.1,1.3,0.2,1.8,0.2c0.5,0,1.5-0.1,2.8-0.3c0.8-0.1,1.4-0.1,1.7,0c0.3,0.1,0.8,0.3,1.4,0.7c0.2,0.1,0.4,0.3,0.4,0.4
				c0,0.1,0,0.2-0.2,0.3c-0.2,0.1-0.4,0.2-0.7,0.1c-0.2-0.1-0.7-0.3-1.5-0.7l-0.7-0.4l-2.7,1.6l0.5,0.3c1.2,0.7,2.3,1,3.4,1
				c1,0,1.9-0.2,2.7-0.6l1.1,0.6l1.3-0.7l-1-0.6C129.9,155.1,130.3,154.5,130.2,153.9z"/>
		</g>
		<g>
			<path class="st1" d="M176.6,122c-3.1-1.8-7.4-2.8-11.7-2.8c-4.4,0-8.6,1-11.7,2.8c-2.9,1.7-4.6,4-4.6,6.4c0,2.4,1.7,4.7,4.7,6.5
				c3.1,1.8,7.4,2.8,11.7,2.8h0c4.4,0,8.6-1,11.7-2.8c2.9-1.7,4.6-4,4.6-6.4C181.3,126.1,179.5,123.7,176.6,122z M174.7,131.6
				c-2.5,1.5-6.1,2.3-9.8,2.3v1.9l0-1.9c-3.7,0-7.3-0.8-9.8-2.3c-2.1-1.2-2.8-2.5-2.8-3.2c0-0.7,0.7-1.9,2.7-3.1
				c2.5-1.5,6.1-2.3,9.8-2.3c3.7,0,7.3,0.8,9.8,2.3c2.1,1.2,2.8,2.5,2.8,3.2C177.5,129.2,176.8,130.4,174.7,131.6z"/>
			<path class="st1" d="M172.2,129.5c-0.1-0.6-0.6-1.2-1.6-1.7c-0.6-0.4-1.2-0.6-1.8-0.7c-0.6-0.1-1.1-0.2-1.6-0.2
				c-0.5,0-1.3,0.1-2.4,0.3c-1.3,0.2-2.1,0.3-2.5,0.3c-0.3,0-0.7-0.1-1.2-0.4c-0.3-0.1-0.4-0.3-0.5-0.4c0-0.1,0-0.2,0.2-0.3
				c0.2-0.1,0.4-0.2,0.6-0.1c0.2,0.1,0.6,0.2,1,0.5l0.5,0.3l2.7-1.6c-0.2-0.1-0.4-0.2-0.5-0.3c-0.8-0.5-1.6-0.7-2.5-0.7
				c-0.9,0-1.8,0.2-2.7,0.6l-0.9-0.5l-1.3,0.7l0.9,0.5c-0.8,0.6-1.2,1.2-1.2,1.7c0,0.5,0.4,1,1.2,1.5c0.6,0.3,1.2,0.6,1.8,0.7
				c0.7,0.1,1.3,0.2,1.8,0.2c0.5,0,1.5-0.1,2.8-0.3c0.8-0.1,1.4-0.1,1.7,0c0.3,0.1,0.8,0.3,1.4,0.7c0.2,0.1,0.4,0.3,0.4,0.4
				c0,0.1,0,0.2-0.2,0.3c-0.2,0.1-0.4,0.2-0.7,0.1c-0.2-0.1-0.7-0.3-1.5-0.7l-0.7-0.4l-2.7,1.6l0.5,0.3c1.2,0.7,2.3,1,3.4,1
				c1,0,1.9-0.2,2.7-0.6l1.1,0.6l1.3-0.7l-1-0.6C171.9,130.7,172.3,130.1,172.2,129.5z"/>
		</g>
		<linearGradient id="SVGID_10_" gradientUnits="userSpaceOnUse" x1="119.1214" y1="123.1737" x2="165.3503" y2="155.1205">
			<stop  offset="0" style="stop-color:#FFE7A3"/>
			<stop  offset="0.5" style="stop-color:#FFCA05"/>
			<stop  offset="1" style="stop-color:#FAAC18"/>
		</linearGradient>
		<polygon class="st11" points="130,120.8 110.1,132.4 158.9,160.6 178.8,148.9 		"/>
		<linearGradient id="SVGID_11_" gradientUnits="userSpaceOnUse" x1="168.8344" y1="153.4366" x2="168.8344" y2="191.0158">
			<stop  offset="0" style="stop-color:#FFE7A3"/>
			<stop  offset="0.5" style="stop-color:#FFCA05"/>
			<stop  offset="1" style="stop-color:#FAAC18"/>
		</linearGradient>
		<polygon class="st12" points="158.9,185 178.8,173.5 178.8,149 158.9,160.5 		"/>
		
			<radialGradient id="SVGID_12_" cx="1049.0619" cy="-283.0091" r="2.4387" gradientTransform="matrix(0.5207 0 0 5.0384 -421.749 1618.6589)" gradientUnits="userSpaceOnUse">
			<stop  offset="0" style="stop-color:#FFFFFF;stop-opacity:0.7"/>
			<stop  offset="1" style="stop-color:#FFFFFF;stop-opacity:0"/>
		</radialGradient>
		<path class="st13" d="M125.8,192.7c0,6.8-0.6,12.3-1.3,12.3c-0.7,0-1.3-5.5-1.3-12.3c0-6.8,0.6-12.3,1.3-12.3
			C125.2,180.5,125.8,186,125.8,192.7z"/>
	</g>
	<g>
		<g>
			<linearGradient id="SVGID_13_" gradientUnits="userSpaceOnUse" x1="111.9728" y1="61.0365" x2="140.7246" y2="150.1107">
				<stop  offset="0" style="stop-color:#D1E4A5"/>
				<stop  offset="0.5" style="stop-color:#ACD479"/>
				<stop  offset="1" style="stop-color:#76B83F"/>
			</linearGradient>
			<polygon class="st14" points="105.5,64.1 57.1,92.3 146.1,143.7 194.6,115.5 			"/>
			<linearGradient id="SVGID_14_" gradientUnits="userSpaceOnUse" x1="146.0029" y1="141.9209" x2="194.5811" y2="141.9209">
				<stop  offset="0" style="stop-color:#D1E4A5"/>
				<stop  offset="0.5" style="stop-color:#ACD479"/>
				<stop  offset="1" style="stop-color:#76B83F"/>
			</linearGradient>
			<polygon class="st15" points="146.1,143.7 146,168.3 194.5,140.1 194.6,115.5 			"/>
			<polygon class="st3" points="146.1,143.7 146,168.3 194.5,140.1 194.6,115.5 			"/>
			<linearGradient id="SVGID_15_" gradientUnits="userSpaceOnUse" x1="56.9531" y1="130.3003" x2="146.1045" y2="130.3003">
				<stop  offset="0" style="stop-color:#D1E4A5"/>
				<stop  offset="0.5" style="stop-color:#ACD479"/>
				<stop  offset="1" style="stop-color:#76B83F"/>
			</linearGradient>
			<polygon class="st16" points="57.1,92.3 57,116.9 146,168.3 146.1,143.7 			"/>
			<polygon class="st1" points="57.1,92.3 57,116.9 146,168.3 146.1,143.7 			"/>
		</g>
		<g>
			<path class="st1" d="M146.1,138.5l-80-46.2l39.5-22.9l80,46.2L146.1,138.5z M75.1,92.3l71,41l30.5-17.7l-71-41L75.1,92.3z"/>
		</g>
		<g>
			<path class="st1" d="M117.9,85.5c-3.1-1.8-7.4-2.8-11.7-2.8s-8.6,1-11.7,2.8c-2.9,1.7-4.6,4-4.6,6.4c0,2.4,1.7,4.7,4.7,6.5
				c3.1,1.8,7.4,2.8,11.7,2.8h0c4.4,0,8.6-1,11.7-2.8c2.9-1.7,4.6-4,4.6-6.4C122.6,89.5,120.9,87.2,117.9,85.5z M116,95
				c-2.5,1.5-6.1,2.3-9.8,2.3v1.9l0-1.9c-3.7,0-7.3-0.8-9.8-2.3c-2.1-1.2-2.8-2.5-2.8-3.2c0-0.7,0.7-1.9,2.7-3.1
				c2.5-1.5,6.1-2.3,9.8-2.3c3.7,0,7.3,0.8,9.8,2.3c2.1,1.2,2.8,2.5,2.8,3.2C118.8,92.6,118.1,93.8,116,95z"/>
			<path class="st1" d="M112.3,89.1l0.9-0.5l-1.3-0.7l-0.9,0.5c-1-0.5-2-0.7-2.9-0.7c-0.9,0-1.8,0.2-2.6,0.7c-0.6,0.3-1,0.7-1.2,1.1
				c-0.2,0.4-0.3,0.7-0.3,1c0.1,0.3,0.2,0.9,0.6,1.7c0.2,0.5,0.2,0.8,0,1c-0.2,0.2-0.6,0.5-1.2,0.8c-0.2,0.1-0.5,0.2-0.7,0.2
				c-0.2,0-0.4,0-0.6-0.1c-0.2-0.1-0.3-0.3-0.1-0.4c0.1-0.1,0.5-0.4,1.3-0.8l0.7-0.4l-2.7-1.6l-0.5,0.3c-1.2,0.7-1.8,1.4-1.7,2
				c0.1,0.6,0.4,1.1,1.1,1.6L99,95.3l1.3,0.7l1-0.6c1.1,0.5,2.1,0.7,3.1,0.6c1-0.1,2-0.4,3-0.9c0.6-0.4,1-0.7,1.3-1
				c0.2-0.3,0.3-0.6,0.3-0.9c0-0.3-0.2-0.7-0.5-1.4c-0.3-0.8-0.5-1.2-0.5-1.4c0-0.2,0.2-0.4,0.6-0.7c0.3-0.1,0.5-0.2,0.7-0.3
				c0.2,0,0.4,0,0.6,0.1c0.2,0.1,0.3,0.2,0.2,0.4c-0.1,0.1-0.4,0.3-0.8,0.6l-0.5,0.3l2.7,1.6c0.2-0.1,0.4-0.2,0.5-0.3
				c0.8-0.5,1.2-1,1.3-1.5C113.4,90.2,113.1,89.6,112.3,89.1z"/>
		</g>
		<g>
			<path class="st1" d="M157.1,108.1c-3.1-1.8-7.4-2.8-11.7-2.8s-8.6,1-11.7,2.8c-2.9,1.7-4.6,4-4.6,6.4c0,2.4,1.7,4.7,4.7,6.5
				c3.1,1.8,7.4,2.8,11.7,2.8h0c4.4,0,8.6-1,11.7-2.8c2.9-1.7,4.6-4,4.6-6.4C161.8,112.2,160.1,109.9,157.1,108.1z M155.3,117.7
				c-2.5,1.5-6.1,2.3-9.8,2.3v1.9l0-1.9c-3.7,0-7.3-0.8-9.8-2.3c-2.1-1.2-2.8-2.5-2.8-3.2c0-0.7,0.7-1.9,2.7-3.1
				c2.5-1.5,6.1-2.3,9.8-2.3c3.7,0,7.3,0.8,9.8,2.3c2.1,1.2,2.8,2.5,2.8,3.2C158,115.3,157.3,116.5,155.3,117.7z"/>
			<path class="st1" d="M151.6,111.8l0.9-0.5l-1.3-0.7l-0.9,0.5c-1-0.5-2-0.7-2.9-0.7c-0.9,0-1.8,0.2-2.6,0.7
				c-0.6,0.3-1,0.7-1.2,1.1c-0.2,0.4-0.3,0.7-0.3,1c0.1,0.3,0.2,0.9,0.6,1.7c0.2,0.5,0.2,0.8,0,1c-0.2,0.2-0.6,0.5-1.2,0.8
				c-0.2,0.1-0.5,0.2-0.7,0.2c-0.2,0-0.4,0-0.6-0.1c-0.2-0.1-0.3-0.3-0.1-0.4c0.1-0.1,0.5-0.4,1.3-0.8l0.7-0.4l-2.7-1.6l-0.5,0.3
				c-1.2,0.7-1.8,1.4-1.7,2c0.1,0.6,0.4,1.1,1.1,1.6l-1.1,0.6l1.3,0.7l1-0.6c1.1,0.5,2.1,0.7,3.1,0.6c1-0.1,2-0.4,3-0.9
				c0.6-0.4,1-0.7,1.3-1c0.2-0.3,0.3-0.6,0.3-0.9c0-0.3-0.2-0.7-0.5-1.4c-0.3-0.8-0.5-1.2-0.5-1.4c0-0.2,0.2-0.4,0.6-0.7
				c0.3-0.1,0.5-0.2,0.7-0.3c0.2,0,0.4,0,0.6,0.1c0.2,0.1,0.3,0.2,0.2,0.4c-0.1,0.1-0.4,0.3-0.8,0.6l-0.5,0.3l2.7,1.6
				c0.2-0.1,0.4-0.2,0.5-0.3c0.8-0.5,1.2-1,1.3-1.5C152.7,112.9,152.3,112.3,151.6,111.8z"/>
		</g>
		
			<linearGradient id="SVGID_16_" gradientUnits="userSpaceOnUse" x1="-871.0455" y1="86.1027" x2="-824.8168" y2="118.0494" gradientTransform="matrix(-1 0 0 1 -720.4414 0)">
			<stop  offset="0" style="stop-color:#FFE7A3"/>
			<stop  offset="0.5" style="stop-color:#FFCA05"/>
			<stop  offset="1" style="stop-color:#FAAC18"/>
		</linearGradient>
		<polygon class="st17" points="139.7,83.7 159.6,95.3 110.8,123.5 90.9,111.9 		"/>
		
			<linearGradient id="SVGID_17_" gradientUnits="userSpaceOnUse" x1="-821.3325" y1="116.3653" x2="-821.3325" y2="153.9446" gradientTransform="matrix(-1 0 0 1 -720.4414 0)">
			<stop  offset="0" style="stop-color:#FFE7A3"/>
			<stop  offset="0.5" style="stop-color:#FFCA05"/>
			<stop  offset="1" style="stop-color:#FAAC18"/>
		</linearGradient>
		<polygon class="st18" points="110.8,148 90.9,136.4 90.9,111.9 110.8,123.5 		"/>
		
			<radialGradient id="SVGID_18_" cx="1090.3629" cy="-290.3009" r="2.4382" gradientTransform="matrix(0.5207 0 0 5.0384 -421.749 1618.6589)" gradientUnits="userSpaceOnUse">
			<stop  offset="0" style="stop-color:#FFFFFF;stop-opacity:0.7"/>
			<stop  offset="1" style="stop-color:#FFFFFF;stop-opacity:0"/>
		</radialGradient>
		<path class="st19" d="M147.3,156c0,6.8-0.6,12.3-1.3,12.3c-0.7,0-1.3-5.5-1.3-12.3c0-6.8,0.6-12.3,1.3-12.3
			C146.7,143.7,147.3,149.2,147.3,156z"/>
	</g>
</g>
</svg>
