<?xml version="1.0" encoding="utf-8"?>
<!-- Generator: Adobe Illustrator 22.0.0, SVG Export Plug-In . SVG Version: 6.00 Build 0)  -->
<svg version="1.1" id="Layer_1" xmlns="http://www.w3.org/2000/svg" xmlns:xlink="http://www.w3.org/1999/xlink" x="0px" y="0px"
	 viewBox="0 0 239.1 216.2" style="enable-background:new 0 0 239.1 216.2;" xml:space="preserve">
<style type="text/css">
	.st0{fill:url(#SVGID_1_);}
	.st1{fill:url(#SVGID_2_);}
	.st2{fill:url(#SVGID_3_);}
	.st3{fill:url(#SVGID_4_);}
	.st4{fill:url(#SVGID_5_);}
	.st5{fill:url(#SVGID_6_);}
	.st6{fill:url(#SVGID_7_);}
	.st7{fill:url(#SVGID_8_);}
	.st8{fill:url(#SVGID_9_);}
	.st9{fill:url(#SVGID_10_);}
	.st10{fill:url(#SVGID_11_);}
	.st11{fill:url(#SVGID_12_);}
	.st12{fill:url(#SVGID_13_);}
	.st13{fill:url(#SVGID_14_);}
	.st14{fill:url(#SVGID_15_);}
	.st15{fill:url(#SVGID_16_);}
	.st16{fill:url(#SVGID_17_);}
	.st17{fill:url(#SVGID_18_);}
	.st18{fill:url(#SVGID_19_);}
	.st19{fill:url(#SVGID_20_);}
	.st20{fill:url(#SVGID_21_);}
	.st21{fill:url(#SVGID_22_);}
	.st22{fill:url(#SVGID_23_);}
	.st23{fill:url(#SVGID_24_);}
	.st24{fill:url(#SVGID_25_);}
	.st25{fill:url(#SVGID_26_);}
	.st26{fill:url(#SVGID_27_);}
	.st27{fill:url(#SVGID_28_);}
</style>
<g>
	<g>
		<g>
			<linearGradient id="SVGID_1_" gradientUnits="userSpaceOnUse" x1="71.9267" y1="181.7294" x2="168.1064" y2="181.7294">
				<stop  offset="0" style="stop-color:#D68024"/>
				<stop  offset="1" style="stop-color:#D59417"/>
			</linearGradient>
			<path class="st0" d="M168.1,160.1c0,0.2,0,0.5-0.1,0.7c0,0.2-0.1,0.4-0.1,0.6c0,0.2-0.1,0.5-0.1,0.7c0,0.2-0.1,0.4-0.1,0.6
				c-0.1,0.2-0.1,0.5-0.2,0.7c-0.1,0.2-0.1,0.4-0.2,0.6c-0.1,0.2-0.1,0.5-0.2,0.7c-0.1,0.2-0.2,0.4-0.2,0.6
				c-0.1,0.2-0.2,0.5-0.3,0.7c-0.1,0.2-0.2,0.4-0.3,0.6c-0.1,0.2-0.2,0.5-0.4,0.7c-0.1,0.2-0.2,0.4-0.3,0.6
				c-0.2,0.3-0.3,0.6-0.5,0.9c-0.1,0.2-0.2,0.3-0.3,0.5c-0.2,0.3-0.4,0.6-0.7,0.9c-0.1,0.1-0.2,0.3-0.3,0.4
				c-0.1,0.1-0.1,0.1-0.2,0.2c-0.3,0.3-0.5,0.6-0.8,0.9c-0.1,0.1-0.1,0.2-0.2,0.2c-0.3,0.4-0.7,0.7-1,1c-0.1,0.1-0.1,0.1-0.2,0.2
				c-0.3,0.3-0.5,0.5-0.8,0.8c-0.2,0.2-0.5,0.4-0.7,0.6c-0.2,0.2-0.4,0.4-0.7,0.6c-0.2,0.2-0.5,0.4-0.8,0.6
				c-0.2,0.2-0.5,0.4-0.7,0.5c-0.3,0.2-0.5,0.4-0.8,0.6c-0.3,0.2-0.5,0.3-0.8,0.5c-0.3,0.2-0.6,0.4-0.9,0.6
				c-0.4,0.2-0.7,0.5-1.1,0.7c-0.7,0.4-1.5,0.8-2.2,1.2c-0.2,0.1-0.4,0.2-0.7,0.3c-0.6,0.3-1.2,0.6-1.8,0.8
				c-0.2,0.1-0.4,0.2-0.6,0.3c-0.8,0.3-1.6,0.7-2.4,1c-0.1,0.1-0.3,0.1-0.4,0.2c-0.7,0.3-1.4,0.5-2.1,0.7c-0.3,0.1-0.6,0.2-0.9,0.3
				c-0.4,0.1-0.8,0.2-1.2,0.4c-0.3,0.1-0.7,0.2-1,0.3c-0.4,0.1-0.8,0.2-1.2,0.3c-0.3,0.1-0.7,0.2-1,0.3c-0.4,0.1-0.8,0.2-1.2,0.3
				c-0.3,0.1-0.7,0.2-1,0.2c-0.4,0.1-0.8,0.2-1.3,0.2c-0.3,0.1-0.6,0.1-1,0.2c-0.9,0.2-1.8,0.3-2.7,0.4c-0.1,0-0.3,0-0.4,0
				c-0.8,0.1-1.6,0.2-2.4,0.3c-0.3,0-0.6,0.1-0.9,0.1c-0.5,0-1,0.1-1.5,0.1c-0.3,0-0.6,0-1,0.1c-0.5,0-1.1,0.1-1.6,0.1
				c-0.3,0-0.6,0-0.9,0c-0.5,0-0.9,0-1.4,0c-0.3,0-0.7,0-1,0c-0.5,0-1,0-1.5,0c-0.3,0-0.6,0-0.9,0c-0.5,0-0.9,0-1.4-0.1
				c-0.3,0-0.6,0-1,0c-0.5,0-1-0.1-1.5-0.1c-0.3,0-0.6,0-0.8-0.1c-0.6,0-1.2-0.1-1.8-0.2c-0.2,0-0.3,0-0.5-0.1
				c-0.8-0.1-1.5-0.2-2.3-0.3c-0.1,0-0.3,0-0.4-0.1c-0.6-0.1-1.3-0.2-1.9-0.3c-0.3,0-0.5-0.1-0.8-0.2c-0.5-0.1-1-0.2-1.5-0.3
				c-0.3-0.1-0.5-0.1-0.8-0.2c-0.5-0.1-1.1-0.2-1.6-0.4c-0.3-0.1-0.6-0.1-0.9-0.2c-0.5-0.1-1-0.3-1.5-0.4c-0.3-0.1-0.5-0.2-0.8-0.2
				c-0.8-0.2-1.5-0.5-2.3-0.7c-0.1,0-0.3-0.1-0.4-0.1c-0.9-0.3-1.7-0.6-2.5-0.9c-0.3-0.1-0.7-0.3-1-0.4c-0.3-0.1-0.5-0.2-0.8-0.3
				c-0.4-0.2-0.7-0.3-1.1-0.5c-0.2-0.1-0.5-0.2-0.7-0.3c-0.4-0.2-0.8-0.4-1.2-0.6c-0.2-0.1-0.4-0.2-0.6-0.3c-0.6-0.3-1.2-0.6-1.7-1
				C76.7,173.4,72,166.2,72,159l0,17.5c0,7.2,4.7,14.4,14.2,19.8c0.6,0.3,1.1,0.6,1.7,1c0.2,0.1,0.4,0.2,0.6,0.3
				c0.4,0.2,0.8,0.4,1.2,0.6c0.2,0.1,0.5,0.2,0.7,0.3c0.4,0.2,0.7,0.3,1.1,0.5c0.3,0.1,0.5,0.2,0.8,0.3c0.3,0.1,0.5,0.2,0.8,0.3
				c0.1,0,0.2,0.1,0.2,0.1c0.8,0.3,1.7,0.6,2.5,0.9c0.1,0,0.3,0.1,0.4,0.1c0.7,0.2,1.5,0.5,2.3,0.7c0.1,0,0.3,0.1,0.4,0.1
				c0.1,0,0.3,0.1,0.4,0.1c0.5,0.1,1,0.3,1.5,0.4c0.3,0.1,0.6,0.2,0.9,0.2c0.5,0.1,1.1,0.2,1.6,0.4c0.2,0,0.4,0.1,0.6,0.1
				c0.1,0,0.1,0,0.2,0c0.5,0.1,1,0.2,1.5,0.3c0.3,0,0.5,0.1,0.8,0.2c0.7,0.1,1.3,0.2,2,0.3c0.1,0,0.2,0,0.3,0.1c0,0,0,0,0,0
				c0.8,0.1,1.5,0.2,2.3,0.3c0.2,0,0.3,0,0.5,0.1c0.6,0.1,1.2,0.1,1.8,0.2c0,0,0,0,0,0c0.3,0,0.5,0,0.8,0.1c0.5,0,1,0.1,1.5,0.1
				c0.3,0,0.6,0,1,0c0.5,0,0.9,0,1.4,0.1c0,0,0.1,0,0.1,0c0.3,0,0.5,0,0.8,0c0.5,0,1,0,1.5,0c0.3,0,0.7,0,1,0c0.5,0,0.9,0,1.4,0
				c0.1,0,0.2,0,0.3,0c0.2,0,0.4,0,0.7,0c0.5,0,1.1,0,1.6-0.1c0.3,0,0.6,0,1-0.1c0.5,0,1-0.1,1.5-0.1c0.2,0,0.4,0,0.5,0
				c0.1,0,0.3,0,0.4,0c0.8-0.1,1.6-0.2,2.4-0.3c0.1,0,0.3,0,0.4,0c0.9-0.1,1.8-0.3,2.7-0.4c0.1,0,0.2,0,0.3,0c0.2,0,0.5-0.1,0.7-0.1
				c0.4-0.1,0.8-0.2,1.3-0.2c0.3-0.1,0.7-0.1,1-0.2c0.4-0.1,0.8-0.2,1.2-0.3c0.3-0.1,0.7-0.2,1-0.3c0.4-0.1,0.8-0.2,1.2-0.3
				c0.3-0.1,0.7-0.2,1-0.3c0.4-0.1,0.8-0.2,1.2-0.4c0.2-0.1,0.3-0.1,0.5-0.2c0.1,0,0.2-0.1,0.4-0.1c0.7-0.2,1.4-0.5,2.1-0.7
				c0.1-0.1,0.3-0.1,0.4-0.2c0.8-0.3,1.6-0.6,2.4-1c0.2-0.1,0.4-0.2,0.6-0.3c0.6-0.3,1.2-0.6,1.8-0.8c0.2-0.1,0.4-0.2,0.7-0.3
				c0.8-0.4,1.5-0.8,2.2-1.2c0.2-0.1,0.4-0.2,0.6-0.3c0.2-0.1,0.3-0.2,0.5-0.3c0.3-0.2,0.6-0.4,0.9-0.6c0.3-0.2,0.5-0.3,0.8-0.5
				c0.3-0.2,0.5-0.4,0.8-0.6c0.2-0.2,0.5-0.4,0.7-0.5c0.3-0.2,0.5-0.4,0.8-0.6c0.2-0.2,0.4-0.4,0.7-0.6c0.2-0.2,0.5-0.4,0.7-0.6
				c0.1-0.1,0.2-0.2,0.3-0.2c0.2-0.2,0.4-0.3,0.5-0.5c0.1-0.1,0.1-0.1,0.2-0.2c0.3-0.3,0.7-0.7,1-1c0.1-0.1,0.1-0.2,0.2-0.3
				c0.3-0.3,0.5-0.6,0.8-0.9c0.1-0.1,0.1-0.1,0.2-0.2c0,0,0.1-0.1,0.1-0.1c0.1-0.1,0.2-0.2,0.3-0.3c0.2-0.3,0.5-0.6,0.7-0.9
				c0.1-0.2,0.2-0.3,0.3-0.5c0.2-0.3,0.4-0.6,0.5-0.9c0-0.1,0.1-0.2,0.1-0.2c0.1-0.1,0.1-0.2,0.2-0.3c0.1-0.2,0.3-0.5,0.4-0.7
				c0.1-0.2,0.2-0.4,0.3-0.6c0.1-0.2,0.2-0.5,0.3-0.7c0-0.1,0.1-0.2,0.1-0.3c0-0.1,0.1-0.2,0.1-0.3c0.1-0.2,0.2-0.5,0.2-0.7
				c0.1-0.2,0.1-0.4,0.2-0.6c0.1-0.2,0.1-0.5,0.2-0.7c0-0.1,0.1-0.3,0.1-0.4c0-0.1,0-0.2,0-0.3c0-0.2,0.1-0.5,0.1-0.7
				c0-0.2,0.1-0.4,0.1-0.6c0-0.2,0-0.5,0.1-0.7c0-0.1,0-0.3,0-0.4c0-0.1,0-0.3,0-0.4l0-17.4C168.1,159.6,168.1,159.9,168.1,160.1z"
				/>
			<linearGradient id="SVGID_2_" gradientUnits="userSpaceOnUse" x1="120.0414" y1="189.5619" x2="120.0414" y2="130.0056">
				<stop  offset="0" style="stop-color:#FFE7A3"/>
				<stop  offset="0.5" style="stop-color:#FFCA05"/>
				<stop  offset="1" style="stop-color:#FAAC18"/>
			</linearGradient>
			<path class="st1" d="M153.9,139.5c-18.8-10.9-49.3-10.9-68,0c-18.7,10.9-18.6,28.5,0.2,39.4c18.8,10.9,49.3,10.9,68,0
				C172.8,168,172.7,150.3,153.9,139.5z"/>
			<linearGradient id="SVGID_3_" gradientUnits="userSpaceOnUse" x1="120.0412" y1="137.7101" x2="120.0412" y2="182.4291">
				<stop  offset="0" style="stop-color:#FFE7A3"/>
				<stop  offset="0.5" style="stop-color:#FFCA05"/>
				<stop  offset="1" style="stop-color:#FAAC18"/>
			</linearGradient>
			<path class="st2" d="M120.2,180.6c-11.4,0-22.5-2.6-30.5-7.2c-6.7-3.9-10.6-8.8-10.6-13.6c0-4.7,3.8-9.6,10.4-13.4
				c7.9-4.6,18.9-7.2,30.4-7.2c11.4,0,22.5,2.6,30.5,7.2c6.7,3.9,10.6,8.8,10.6,13.6c0,4.7-3.8,9.6-10.4,13.4
				C142.7,178,131.6,180.6,120.2,180.6C120.2,180.6,120.2,180.6,120.2,180.6z"/>
			<linearGradient id="SVGID_4_" gradientUnits="userSpaceOnUse" x1="79.1118" y1="147.9522" x2="160.9707" y2="147.9522">
				<stop  offset="0" style="stop-color:#D68024"/>
				<stop  offset="1" style="stop-color:#D59417"/>
			</linearGradient>
			<path class="st3" d="M89.5,146.4c7.9-4.6,18.9-7.2,30.4-7.2c11.4,0,22.5,2.6,30.5,7.2c6.2,3.6,10,8.1,10.5,12.5
				c0-0.4,0.1-0.7,0.1-1.1c0-4.7-3.9-9.7-10.6-13.6c-7.9-4.6-19-7.2-30.5-7.2c-11.4,0-22.5,2.6-30.4,7.2
				c-6.6,3.9-10.4,8.7-10.4,13.4c0,0.4,0,0.7,0.1,1.1C79.7,154.4,83.4,149.9,89.5,146.4z"/>
			<g>
				<linearGradient id="SVGID_5_" gradientUnits="userSpaceOnUse" x1="101.3218" y1="148.5872" x2="103.8013" y2="148.5872">
					<stop  offset="0" style="stop-color:#D68024"/>
					<stop  offset="1" style="stop-color:#D59417"/>
				</linearGradient>
				<polygon class="st4" points="101.3,146.3 101.3,149.5 103.8,150.9 103.8,147.7 				"/>
				<linearGradient id="SVGID_6_" gradientUnits="userSpaceOnUse" x1="109.3262" y1="151.8546" x2="115.8765" y2="151.8546">
					<stop  offset="0" style="stop-color:#D68024"/>
					<stop  offset="1" style="stop-color:#D59417"/>
				</linearGradient>
				<path class="st5" d="M114.6,150.6c-0.3-0.2-0.6-0.3-0.9-0.5c-0.1,0-0.1-0.1-0.2-0.1c-0.2-0.1-0.4-0.2-0.6-0.3
					c-0.1,0-0.1-0.1-0.2-0.1c-0.2-0.1-0.4-0.2-0.6-0.2c0,0,0,0,0,0c0,0-0.1,0-0.1,0c-0.1,0-0.2-0.1-0.3-0.1c0,0-0.1,0-0.1,0
					c0,0,0,0,0,0c-0.1,0-0.1,0-0.2,0c0,0-0.1,0-0.1,0c0,0-0.1,0-0.1,0c0,0,0,0,0,0c0,0,0,0,0,0c0,0-0.1,0-0.1,0c0,0-0.1,0-0.1,0
					c0,0-0.1,0-0.1,0c0,0,0,0,0,0c0,0,0,0,0,0c-0.1,0-0.2,0-0.3,0.1c0,0,0,0,0,0c-0.2,0.1-0.3,0.1-0.5,0.2c0,0,0,0,0,0
					c0,0,0,0-0.1,0c-0.1,0-0.1,0.1-0.2,0.1c0,0,0,0,0,0c0,0-0.1,0.1-0.1,0.1c0,0,0,0,0,0c0,0,0,0,0,0c0,0,0,0.1-0.1,0.1
					c0,0,0,0.1,0,0.1c0,0,0,0,0,0c0,0,0,0,0,0c0,0,0,0.1,0,0.1c0,0,0,0.1,0,0.1c0,0,0,0,0,0l0,3.2c0-0.1,0-0.1,0-0.2c0,0,0,0,0,0
					c0-0.1,0.1-0.1,0.1-0.2c0,0,0,0,0,0c0,0,0.1-0.1,0.1-0.1c0.1,0,0.1-0.1,0.2-0.1c0,0,0.1,0,0.1-0.1c0.2-0.1,0.3-0.2,0.5-0.2
					c0.1,0,0.2-0.1,0.4-0.1c0,0,0,0,0,0c0.1,0,0.3,0,0.4,0c0,0,0,0,0,0c0.1,0,0.3,0,0.4,0.1c0.1,0,0.3,0.1,0.4,0.1c0,0,0.1,0,0.1,0
					c0.2,0.1,0.4,0.2,0.6,0.3c0.1,0,0.1,0.1,0.2,0.1c0.2,0.1,0.4,0.2,0.6,0.3c0.1,0,0.1,0.1,0.2,0.1c0.3,0.1,0.5,0.3,0.9,0.5
					l1.3,0.7l0-3.2L114.6,150.6z"/>
				<linearGradient id="SVGID_7_" gradientUnits="userSpaceOnUse" x1="115.8672" y1="150.7218" x2="123.5449" y2="150.7218">
					<stop  offset="0" style="stop-color:#D68024"/>
					<stop  offset="1" style="stop-color:#D59417"/>
				</linearGradient>
				<polygon class="st6" points="115.9,151.4 115.9,154.5 123.5,150.1 123.5,146.9 				"/>
				<linearGradient id="SVGID_8_" gradientUnits="userSpaceOnUse" x1="100.3789" y1="158.5516" x2="132.4023" y2="158.5516">
					<stop  offset="0" style="stop-color:#D68024"/>
					<stop  offset="1" style="stop-color:#D59417"/>
				</linearGradient>
				<path class="st7" d="M132.4,161.4c0-0.1,0-0.1,0-0.2c-0.1-0.4-0.5-0.7-1.2-1.1c-0.4-0.2-0.8-0.4-1.1-0.6
					c-0.1-0.1-0.2-0.1-0.3-0.2c-0.2-0.1-0.5-0.3-0.7-0.4c-0.1,0-0.2-0.1-0.3-0.1c-0.3-0.1-0.5-0.2-0.7-0.3c0,0-0.1,0-0.1,0
					c0,0,0,0,0,0c-0.3-0.1-0.5-0.2-0.8-0.3c0,0,0,0,0,0c-0.1,0-0.2-0.1-0.3-0.1c0,0,0,0,0,0c0,0-0.1,0-0.1,0c-0.1,0-0.1,0-0.2,0
					c0,0-0.1,0-0.1,0c-0.1,0-0.1,0-0.2,0c0,0-0.1,0-0.1,0c-0.1,0-0.1,0-0.2,0c-0.1,0-0.2,0-0.3,0c0,0-0.1,0-0.1,0c0,0-0.1,0-0.1,0
					c-0.2,0-0.3,0-0.5,0c0,0-0.1,0-0.1,0c0,0-0.1,0-0.1,0c-0.1,0-0.2,0-0.3,0c-0.1,0-0.2,0-0.4,0c-0.1,0-0.2,0-0.3,0
					c-0.1,0-0.2,0-0.2,0c0,0-0.1,0-0.1,0c-0.3,0-0.7,0.1-1,0.1c-0.4,0.1-0.8,0.1-1.2,0.2c-0.1,0-0.2,0-0.3,0c-0.4,0-0.8,0.1-1.1,0.1
					c0,0,0,0,0,0c-0.3,0-0.7,0.1-1,0.1c-0.1,0-0.2,0-0.3,0c-0.3,0-0.6,0.1-0.9,0.1c0,0,0,0-0.1,0c-0.3,0-0.5,0.1-0.8,0.1
					c-0.1,0-0.1,0-0.2,0c-0.3,0-0.5,0.1-0.8,0.1c0,0,0,0,0,0c-0.2,0-0.4,0-0.6,0.1c-0.1,0-0.1,0-0.1,0c-0.2,0-0.4,0-0.6,0
					c-0.3,0-0.6,0-1,0c-0.1,0-0.2,0-0.3,0c-0.4,0-0.8,0-1.2-0.1c-0.1,0-0.2,0-0.4,0c-0.3,0-0.6-0.1-0.9-0.1
					c-0.5-0.1-0.9-0.1-1.4-0.2c-0.3-0.1-0.7-0.2-1-0.2c-0.1,0-0.3-0.1-0.4-0.1c-0.1,0-0.2-0.1-0.3-0.1c-0.4-0.1-0.8-0.2-1.2-0.4
					c-0.3-0.1-0.5-0.2-0.8-0.3c-0.1-0.1-0.3-0.1-0.4-0.2c-0.4-0.2-0.8-0.4-1.2-0.6c-2.3-1.3-3.5-2.8-3.5-4.3l0,3.2
					c0,1.5,1.2,2.9,3.5,4.3c0.4,0.2,0.8,0.4,1.2,0.6c0.1,0.1,0.3,0.1,0.4,0.2c0.2,0.1,0.4,0.2,0.7,0.3c0,0,0.1,0,0.1,0
					c0.4,0.1,0.8,0.3,1.2,0.4c0.1,0,0.2,0.1,0.2,0.1c0,0,0,0,0,0c0.1,0,0.3,0.1,0.4,0.1c0.3,0.1,0.6,0.1,0.8,0.2c0.1,0,0.1,0,0.2,0
					c0.5,0.1,0.9,0.2,1.4,0.2c0,0,0,0,0,0c0.3,0,0.6,0.1,0.9,0.1c0.1,0,0.2,0,0.3,0c0,0,0,0,0,0c0.4,0,0.7,0,1.1,0.1
					c0,0,0.1,0,0.1,0c0.1,0,0.2,0,0.3,0c0.2,0,0.4,0,0.6,0c0.1,0,0.3,0,0.4,0c0.2,0,0.4,0,0.6,0c0,0,0.1,0,0.1,0
					c0.2,0,0.4,0,0.6-0.1c0,0,0,0,0,0c0.2,0,0.4,0,0.6-0.1c0.1,0,0.1,0,0.2,0c0.1,0,0.1,0,0.2,0c0.3,0,0.5-0.1,0.8-0.1c0,0,0,0,0,0
					c0.3,0,0.6-0.1,0.9-0.1c0.1,0,0.2,0,0.2,0c0.3,0,0.7-0.1,1-0.1c0,0,0,0,0,0c0.4,0,0.7-0.1,1.1-0.1c0.1,0,0.2,0,0.3,0
					c0.4-0.1,0.8-0.1,1.2-0.2c0.4,0,0.7-0.1,1-0.1c0.1,0,0.2,0,0.4,0c0.1,0,0.2,0,0.3,0c0.1,0,0.3,0,0.4,0c0.1,0,0.2,0,0.3,0
					c0.1,0,0.2,0,0.3,0c0.2,0,0.3,0,0.5,0c0.1,0,0.2,0,0.2,0c0.1,0,0.2,0,0.3,0c0.1,0,0.2,0,0.3,0c0.1,0,0.1,0,0.2,0
					c0.1,0,0.2,0,0.3,0c0,0,0.1,0,0.1,0c0.1,0,0.3,0.1,0.4,0.1c0.2,0.1,0.5,0.2,0.8,0.3c0,0,0.1,0,0.1,0c0.2,0.1,0.5,0.2,0.7,0.3
					c0.1,0,0.2,0.1,0.3,0.1c0.2,0.1,0.5,0.2,0.7,0.4c0.1,0.1,0.2,0.1,0.3,0.2c0.4,0.2,0.7,0.4,1.1,0.6c0.7,0.4,1.1,0.8,1.2,1.1
					c0,0.1,0,0.1,0,0.2l0,0l0,0L132.4,161.4z"/>
				<linearGradient id="SVGID_9_" gradientUnits="userSpaceOnUse" x1="138.5781" y1="162.9915" x2="141.6465" y2="162.9915">
					<stop  offset="0" style="stop-color:#D68024"/>
					<stop  offset="1" style="stop-color:#D59417"/>
				</linearGradient>
				<path class="st8" d="M141.6,159.1c0,0.1,0,0.2,0,0.3c0,0.1,0,0.2,0,0.3c0,0.1,0,0.2-0.1,0.3c0,0.1-0.1,0.2-0.1,0.3
					c0,0.1-0.1,0.2-0.1,0.2c-0.1,0.1-0.1,0.3-0.2,0.4c-0.1,0.1-0.1,0.3-0.2,0.4c0,0,0,0.1,0,0.1c-0.1,0.2-0.2,0.3-0.4,0.5
					c-0.1,0.1-0.1,0.2-0.2,0.2c-0.1,0.1-0.2,0.2-0.3,0.3c-0.1,0.1-0.2,0.2-0.2,0.2c-0.1,0.1-0.2,0.2-0.4,0.4c-0.1,0-0.1,0.1-0.2,0.1
					c-0.2,0.2-0.4,0.3-0.6,0.5c0,0,0,0,0,0l0,3.2c0.2-0.2,0.4-0.3,0.6-0.5c0.1,0,0.1-0.1,0.2-0.1c0.1-0.1,0.1-0.1,0.2-0.2
					c0.1-0.1,0.1-0.1,0.2-0.2c0.1-0.1,0.2-0.2,0.2-0.2c0.1-0.1,0.2-0.2,0.3-0.3c0.1-0.1,0.1-0.2,0.2-0.2c0,0,0,0,0.1-0.1
					c0.1-0.1,0.2-0.3,0.3-0.4c0,0,0-0.1,0-0.1c0.1-0.1,0.1-0.2,0.2-0.3c0,0,0-0.1,0-0.1c0.1-0.1,0.1-0.3,0.2-0.4
					c0-0.1,0.1-0.1,0.1-0.2c0,0,0,0,0-0.1c0-0.1,0.1-0.2,0.1-0.3c0-0.1,0-0.1,0.1-0.2c0,0,0,0,0-0.1c0-0.1,0-0.2,0-0.3
					c0-0.1,0-0.1,0-0.2c0,0,0-0.1,0-0.1l0,0L141.6,159.1z"/>
				<linearGradient id="SVGID_10_" gradientUnits="userSpaceOnUse" x1="134.9497" y1="168.1559" x2="137.9614" y2="168.1559">
					<stop  offset="0" style="stop-color:#D68024"/>
					<stop  offset="1" style="stop-color:#D59417"/>
				</linearGradient>
				<polygon class="st9" points="135,165.7 134.9,168.9 138,170.6 138,167.4 				"/>
				<linearGradient id="SVGID_11_" gradientUnits="userSpaceOnUse" x1="137.9521" y1="167.9974" x2="141.4897" y2="167.9974">
					<stop  offset="0" style="stop-color:#D68024"/>
					<stop  offset="1" style="stop-color:#D59417"/>
				</linearGradient>
				<polygon class="st10" points="138,167.4 138,170.6 141.5,168.6 141.5,165.4 				"/>
				<linearGradient id="SVGID_12_" gradientUnits="userSpaceOnUse" x1="150.4444" y1="155.6969" x2="92.4082" y2="155.6969">
					<stop  offset="0" style="stop-color:#FFE7A3"/>
					<stop  offset="0.5" style="stop-color:#FFCA05"/>
					<stop  offset="1" style="stop-color:#FAAC18"/>
				</linearGradient>
				<path class="st11" d="M141.6,158.6c-0.3-1.7-1.8-3.3-4.5-4.9c-1.7-1-3.4-1.7-5-2.1c-1.6-0.4-3.1-0.5-4.5-0.5
					c-1.3,0.1-3.6,0.3-6.7,0.7c-3.7,0.5-6,0.8-7,0.8c-1,0-2-0.4-3.3-1c-0.7-0.4-1.2-0.8-1.3-1.2c-0.1-0.3,0-0.6,0.5-0.9
					c0.6-0.3,1.2-0.4,1.8-0.3c0.6,0.1,1.6,0.6,2.9,1.4l1.3,0.7l7.7-4.5c-0.6-0.4-1.1-0.7-1.4-0.9c-2.3-1.3-4.7-2-7.1-2.1
					c-2.5-0.1-5,0.5-7.7,1.7l-2.5-1.4l-3.5,2.1l2.5,1.4c-2.3,1.7-3.4,3.3-3.4,4.8c0,1.5,1.2,2.9,3.5,4.3c1.6,0.9,3.3,1.6,5.2,1.9
					c1.9,0.4,3.6,0.5,5.1,0.4c1.5-0.1,4.2-0.4,8-0.9c2.3-0.3,3.9-0.3,4.9,0c1,0.3,2.3,0.9,4.1,1.9c0.7,0.4,1.1,0.8,1.2,1.1
					c0.1,0.4-0.1,0.7-0.6,1c-0.6,0.4-1.2,0.4-1.9,0.2c-0.7-0.2-2-0.9-4.1-2.1l-1.9-1.1l-7.7,4.5l1.5,0.9c3.4,2,6.6,2.9,9.5,2.8
					c2.9-0.1,5.5-0.7,7.8-1.7l3,1.7l3.5-2.1l-2.9-1.7C140.9,162,141.9,160.3,141.6,158.6z"/>
				<linearGradient id="SVGID_13_" gradientUnits="userSpaceOnUse" x1="116.1606" y1="167.1842" x2="134.959" y2="167.1842">
					<stop  offset="0" style="stop-color:#D68024"/>
					<stop  offset="1" style="stop-color:#D59417"/>
				</linearGradient>
				<path class="st12" d="M135,165.7c-0.3,0.1-0.6,0.3-0.9,0.4c-0.1,0-0.2,0.1-0.3,0.1c-0.2,0.1-0.4,0.2-0.7,0.2
					c-0.1,0-0.2,0.1-0.4,0.1c-0.2,0.1-0.5,0.1-0.7,0.2c-0.1,0-0.3,0.1-0.4,0.1c-0.3,0.1-0.5,0.1-0.8,0.2c-0.1,0-0.2,0-0.3,0.1
					c-0.5,0.1-1,0.1-1.4,0.2c-0.1,0-0.2,0-0.3,0c-0.4,0-0.8,0.1-1.3,0.1c-0.1,0-0.1,0-0.2,0c-0.3,0-0.6,0-1,0c-0.1,0-0.2,0-0.2,0
					c-0.3,0-0.6-0.1-1-0.1c0,0,0,0,0,0c-0.3,0-0.7-0.1-1-0.2c-0.2,0-0.4-0.1-0.6-0.1c-0.2-0.1-0.4-0.1-0.6-0.2
					c-0.1,0-0.2-0.1-0.3-0.1c-0.3-0.1-0.6-0.2-0.8-0.3c-0.1,0-0.2-0.1-0.3-0.1c-0.4-0.1-0.7-0.3-1.1-0.4c0,0,0,0-0.1,0
					c-0.4-0.2-0.7-0.3-1.1-0.5c-0.1,0-0.2-0.1-0.3-0.1c-0.4-0.2-0.8-0.4-1.1-0.6l-1.5-0.9l0,3.2l1.5,0.9c0.4,0.2,0.8,0.4,1.1,0.6
					c0.1,0.1,0.2,0.1,0.3,0.1c0.4,0.2,0.7,0.3,1.1,0.5c0,0,0,0,0.1,0c0.3,0.1,0.6,0.2,0.8,0.4c0.1,0,0.2,0.1,0.2,0.1
					c0.1,0,0.2,0.1,0.3,0.1c0.3,0.1,0.6,0.2,0.8,0.3c0.1,0,0.2,0.1,0.3,0.1c0,0,0.1,0,0.1,0c0.2,0,0.3,0.1,0.5,0.1
					c0.2,0.1,0.4,0.1,0.6,0.1c0,0,0.1,0,0.1,0c0.3,0.1,0.6,0.1,0.9,0.2c0,0,0,0,0,0c0,0,0,0,0,0c0.3,0,0.5,0.1,0.7,0.1
					c0.1,0,0.1,0,0.2,0c0.1,0,0.2,0,0.2,0c0.1,0,0.2,0,0.3,0c0.2,0,0.5,0,0.7,0c0,0,0,0,0.1,0c0,0,0.1,0,0.1,0c0.4,0,0.8,0,1.3-0.1
					c0.1,0,0.1,0,0.2,0c0.1,0,0.1,0,0.2,0c0.5-0.1,1-0.1,1.4-0.2c0,0,0,0,0.1,0c0.1,0,0.2,0,0.2,0c0.3-0.1,0.6-0.1,0.8-0.2
					c0.1,0,0.3-0.1,0.4-0.1c0.2-0.1,0.5-0.1,0.7-0.2c0.1,0,0.1,0,0.2-0.1c0,0,0.1,0,0.1-0.1c0.2-0.1,0.5-0.2,0.7-0.2
					c0.1,0,0.2-0.1,0.3-0.1c0.3-0.1,0.6-0.3,0.9-0.4l0,0l0,0L135,165.7z"/>
			</g>
		</g>
		<linearGradient id="SVGID_14_" gradientUnits="userSpaceOnUse" x1="120.0468" y1="195.3893" x2="120.0468" y2="167.5239">
			<stop  offset="0" style="stop-color:#FFFFFF"/>
			<stop  offset="1" style="stop-color:#FFFFFF;stop-opacity:0"/>
		</linearGradient>
		<path class="st13" d="M86.2,181.1c18.8,11.4,49.3,11.4,68,0c9.3-5.7,14-13.1,14-20.5l0-0.2c0-0.2,0-0.3,0-0.5c0,0.1,0,0.2,0,0.2
			c0,0.2,0,0.5-0.1,0.7c0,0.2-0.1,0.4-0.1,0.6c0,0.2-0.1,0.5-0.1,0.7c0,0.2-0.1,0.4-0.1,0.6c-0.1,0.2-0.1,0.5-0.2,0.7
			c-0.1,0.2-0.1,0.4-0.2,0.6c-0.1,0.2-0.1,0.5-0.2,0.7c-0.1,0.2-0.2,0.4-0.2,0.6c-0.1,0.2-0.2,0.5-0.3,0.7c-0.1,0.2-0.2,0.4-0.3,0.6
			c-0.1,0.2-0.2,0.5-0.4,0.7c-0.1,0.2-0.2,0.4-0.3,0.6c-0.2,0.3-0.3,0.6-0.5,0.9c-0.1,0.2-0.2,0.3-0.3,0.5c-0.2,0.3-0.4,0.6-0.7,0.9
			c-0.1,0.1-0.2,0.3-0.3,0.4c-0.1,0.1-0.1,0.1-0.2,0.2c-0.3,0.3-0.5,0.6-0.8,0.9c-0.1,0.1-0.1,0.2-0.2,0.2c-0.3,0.4-0.7,0.7-1,1
			c-0.1,0.1-0.1,0.1-0.2,0.2c-0.3,0.3-0.5,0.5-0.8,0.8c-0.2,0.2-0.5,0.4-0.7,0.6c-0.2,0.2-0.4,0.4-0.7,0.6c-0.2,0.2-0.5,0.4-0.8,0.6
			c-0.2,0.2-0.5,0.4-0.7,0.5c-0.3,0.2-0.5,0.4-0.8,0.6c-0.3,0.2-0.5,0.3-0.8,0.5c-0.3,0.2-0.6,0.4-0.9,0.6c-0.4,0.2-0.7,0.5-1.1,0.7
			c-0.7,0.4-1.5,0.8-2.2,1.2c-0.2,0.1-0.4,0.2-0.7,0.3c-0.6,0.3-1.2,0.6-1.8,0.8c-0.2,0.1-0.4,0.2-0.6,0.3c-0.8,0.3-1.6,0.7-2.4,1
			c-0.1,0.1-0.3,0.1-0.4,0.2c-0.7,0.3-1.4,0.5-2.1,0.7c-0.3,0.1-0.6,0.2-0.9,0.3c-0.4,0.1-0.8,0.2-1.2,0.4c-0.3,0.1-0.7,0.2-1,0.3
			c-0.4,0.1-0.8,0.2-1.2,0.3c-0.3,0.1-0.7,0.2-1,0.3c-0.4,0.1-0.8,0.2-1.2,0.3c-0.3,0.1-0.7,0.2-1,0.2c-0.4,0.1-0.8,0.2-1.3,0.2
			c-0.3,0.1-0.6,0.1-1,0.2c-0.9,0.2-1.8,0.3-2.7,0.4c-0.1,0-0.3,0-0.4,0c-0.8,0.1-1.6,0.2-2.4,0.3c-0.3,0-0.6,0.1-0.9,0.1
			c-0.5,0-1,0.1-1.5,0.1c-0.3,0-0.6,0-1,0.1c-0.5,0-1.1,0.1-1.6,0.1c-0.3,0-0.6,0-0.9,0c-0.5,0-0.9,0-1.4,0c-0.3,0-0.7,0-1,0
			c-0.5,0-1,0-1.5,0c-0.3,0-0.6,0-0.9,0c-0.5,0-0.9,0-1.4-0.1c-0.3,0-0.6,0-1,0c-0.5,0-1-0.1-1.5-0.1c-0.3,0-0.6,0-0.8-0.1
			c-0.6,0-1.2-0.1-1.8-0.2c-0.2,0-0.3,0-0.5-0.1c-0.8-0.1-1.5-0.2-2.3-0.3c-0.1,0-0.3,0-0.4-0.1c-0.6-0.1-1.3-0.2-1.9-0.3
			c-0.3,0-0.5-0.1-0.8-0.2c-0.5-0.1-1-0.2-1.5-0.3c-0.3-0.1-0.5-0.1-0.8-0.2c-0.5-0.1-1.1-0.2-1.6-0.4c-0.3-0.1-0.6-0.1-0.9-0.2
			c-0.5-0.1-1-0.3-1.5-0.4c-0.3-0.1-0.5-0.2-0.8-0.2c-0.8-0.2-1.5-0.5-2.3-0.7c-0.1,0-0.3-0.1-0.4-0.1c-0.9-0.3-1.7-0.6-2.5-0.9
			c-0.3-0.1-0.7-0.3-1-0.4c-0.3-0.1-0.5-0.2-0.8-0.3c-0.4-0.2-0.7-0.3-1.1-0.5c-0.2-0.1-0.5-0.2-0.7-0.3c-0.4-0.2-0.8-0.4-1.2-0.6
			c-0.2-0.1-0.4-0.2-0.6-0.3c-0.6-0.3-1.2-0.6-1.7-1c-9.2-5.3-13.9-12.2-14.2-19.1C71.7,167.4,76.4,175.2,86.2,181.1z"/>
	</g>
	<g>
		<g>
			<linearGradient id="SVGID_15_" gradientUnits="userSpaceOnUse" x1="71.9267" y1="164.5731" x2="168.1064" y2="164.5731">
				<stop  offset="0" style="stop-color:#D68024"/>
				<stop  offset="1" style="stop-color:#D59417"/>
			</linearGradient>
			<path class="st14" d="M168.1,143c0,0.2,0,0.5-0.1,0.7c0,0.2-0.1,0.4-0.1,0.6c0,0.2-0.1,0.5-0.1,0.7c0,0.2-0.1,0.4-0.1,0.6
				c-0.1,0.2-0.1,0.5-0.2,0.7c-0.1,0.2-0.1,0.4-0.2,0.6c-0.1,0.2-0.1,0.5-0.2,0.7c-0.1,0.2-0.2,0.4-0.2,0.6
				c-0.1,0.2-0.2,0.5-0.3,0.7c-0.1,0.2-0.2,0.4-0.3,0.6c-0.1,0.2-0.2,0.5-0.4,0.7c-0.1,0.2-0.2,0.4-0.3,0.6
				c-0.2,0.3-0.3,0.6-0.5,0.9c-0.1,0.2-0.2,0.3-0.3,0.5c-0.2,0.3-0.4,0.6-0.7,0.9c-0.1,0.1-0.2,0.3-0.3,0.4
				c-0.1,0.1-0.1,0.1-0.2,0.2c-0.3,0.3-0.5,0.6-0.8,0.9c-0.1,0.1-0.1,0.2-0.2,0.2c-0.3,0.4-0.7,0.7-1,1c-0.1,0.1-0.1,0.1-0.2,0.2
				c-0.3,0.3-0.5,0.5-0.8,0.8c-0.2,0.2-0.5,0.4-0.7,0.6c-0.2,0.2-0.4,0.4-0.7,0.6c-0.2,0.2-0.5,0.4-0.8,0.6
				c-0.2,0.2-0.5,0.4-0.7,0.5c-0.3,0.2-0.5,0.4-0.8,0.6c-0.3,0.2-0.5,0.3-0.8,0.5c-0.3,0.2-0.6,0.4-0.9,0.6
				c-0.4,0.2-0.7,0.5-1.1,0.7c-0.7,0.4-1.5,0.8-2.2,1.2c-0.2,0.1-0.4,0.2-0.7,0.3c-0.6,0.3-1.2,0.6-1.8,0.8
				c-0.2,0.1-0.4,0.2-0.6,0.3c-0.8,0.3-1.6,0.7-2.4,1c-0.1,0.1-0.3,0.1-0.4,0.2c-0.7,0.3-1.4,0.5-2.1,0.7c-0.3,0.1-0.6,0.2-0.9,0.3
				c-0.4,0.1-0.8,0.2-1.2,0.4c-0.3,0.1-0.7,0.2-1,0.3c-0.4,0.1-0.8,0.2-1.2,0.3c-0.3,0.1-0.7,0.2-1,0.3c-0.4,0.1-0.8,0.2-1.2,0.3
				c-0.3,0.1-0.7,0.2-1,0.2c-0.4,0.1-0.8,0.2-1.3,0.2c-0.3,0.1-0.6,0.1-1,0.2c-0.9,0.2-1.8,0.3-2.7,0.4c-0.1,0-0.3,0-0.4,0
				c-0.8,0.1-1.6,0.2-2.4,0.3c-0.3,0-0.6,0.1-0.9,0.1c-0.5,0-1,0.1-1.5,0.1c-0.3,0-0.6,0-1,0.1c-0.5,0-1.1,0.1-1.6,0.1
				c-0.3,0-0.6,0-0.9,0c-0.5,0-0.9,0-1.4,0c-0.3,0-0.7,0-1,0c-0.5,0-1,0-1.5,0c-0.3,0-0.6,0-0.9,0c-0.5,0-0.9,0-1.4-0.1
				c-0.3,0-0.6,0-1,0c-0.5,0-1-0.1-1.5-0.1c-0.3,0-0.6,0-0.8-0.1c-0.6,0-1.2-0.1-1.8-0.2c-0.2,0-0.3,0-0.5-0.1
				c-0.8-0.1-1.5-0.2-2.3-0.3c-0.1,0-0.3,0-0.4-0.1c-0.6-0.1-1.3-0.2-1.9-0.3c-0.3,0-0.5-0.1-0.8-0.2c-0.5-0.1-1-0.2-1.5-0.3
				c-0.3-0.1-0.5-0.1-0.8-0.2c-0.5-0.1-1.1-0.2-1.6-0.4c-0.3-0.1-0.6-0.1-0.9-0.2c-0.5-0.1-1-0.3-1.5-0.4c-0.3-0.1-0.5-0.2-0.8-0.2
				c-0.8-0.2-1.5-0.5-2.3-0.7c-0.1,0-0.3-0.1-0.4-0.1c-0.9-0.3-1.7-0.6-2.5-0.9c-0.3-0.1-0.7-0.3-1-0.4c-0.3-0.1-0.5-0.2-0.8-0.3
				c-0.4-0.2-0.7-0.3-1.1-0.5c-0.2-0.1-0.5-0.2-0.7-0.3c-0.4-0.2-0.8-0.4-1.2-0.6c-0.2-0.1-0.4-0.2-0.6-0.3c-0.6-0.3-1.2-0.6-1.7-1
				C76.7,156.2,72,149,72,141.9l0,17.4c0,7.2,4.7,14.4,14.2,19.8c0.6,0.3,1.1,0.6,1.7,1c0.2,0.1,0.4,0.2,0.6,0.3
				c0.4,0.2,0.8,0.4,1.2,0.6c0.2,0.1,0.5,0.2,0.7,0.3c0.4,0.2,0.7,0.3,1.1,0.5c0.3,0.1,0.5,0.2,0.8,0.3c0.3,0.1,0.5,0.2,0.8,0.3
				c0.1,0,0.2,0.1,0.2,0.1c0.8,0.3,1.7,0.6,2.5,0.9c0.1,0,0.3,0.1,0.4,0.1c0.7,0.2,1.5,0.5,2.3,0.7c0.1,0,0.3,0.1,0.4,0.1
				c0.1,0,0.3,0.1,0.4,0.1c0.5,0.1,1,0.3,1.5,0.4c0.3,0.1,0.6,0.2,0.9,0.2c0.5,0.1,1.1,0.2,1.6,0.4c0.2,0,0.4,0.1,0.6,0.1
				c0.1,0,0.1,0,0.2,0c0.5,0.1,1,0.2,1.5,0.3c0.3,0,0.5,0.1,0.8,0.2c0.7,0.1,1.3,0.2,2,0.3c0.1,0,0.2,0,0.3,0.1c0,0,0,0,0,0
				c0.8,0.1,1.5,0.2,2.3,0.3c0.2,0,0.3,0,0.5,0.1c0.6,0.1,1.2,0.1,1.8,0.2c0,0,0,0,0,0c0.3,0,0.5,0,0.8,0.1c0.5,0,1,0.1,1.5,0.1
				c0.3,0,0.6,0,1,0c0.5,0,0.9,0,1.4,0.1c0,0,0.1,0,0.1,0c0.3,0,0.5,0,0.8,0c0.5,0,1,0,1.5,0c0.3,0,0.7,0,1,0c0.5,0,0.9,0,1.4,0
				c0.1,0,0.2,0,0.3,0c0.2,0,0.4,0,0.7,0c0.5,0,1.1,0,1.6-0.1c0.3,0,0.6,0,1-0.1c0.5,0,1-0.1,1.5-0.1c0.2,0,0.4,0,0.5,0
				c0.1,0,0.3,0,0.4,0c0.8-0.1,1.6-0.2,2.4-0.3c0.1,0,0.3,0,0.4,0c0.9-0.1,1.8-0.3,2.7-0.4c0.1,0,0.2,0,0.3,0c0.2,0,0.5-0.1,0.7-0.1
				c0.4-0.1,0.8-0.2,1.3-0.2c0.3-0.1,0.7-0.1,1-0.2c0.4-0.1,0.8-0.2,1.2-0.3c0.3-0.1,0.7-0.2,1-0.3c0.4-0.1,0.8-0.2,1.2-0.3
				c0.3-0.1,0.7-0.2,1-0.3c0.4-0.1,0.8-0.2,1.2-0.4c0.2-0.1,0.3-0.1,0.5-0.2c0.1,0,0.2-0.1,0.4-0.1c0.7-0.2,1.4-0.5,2.1-0.7
				c0.1-0.1,0.3-0.1,0.4-0.2c0.8-0.3,1.6-0.6,2.4-1c0.2-0.1,0.4-0.2,0.6-0.3c0.6-0.3,1.2-0.6,1.8-0.8c0.2-0.1,0.4-0.2,0.7-0.3
				c0.8-0.4,1.5-0.8,2.2-1.2c0.2-0.1,0.4-0.2,0.6-0.3c0.2-0.1,0.3-0.2,0.5-0.3c0.3-0.2,0.6-0.4,0.9-0.6c0.3-0.2,0.5-0.3,0.8-0.5
				c0.3-0.2,0.5-0.4,0.8-0.6c0.2-0.2,0.5-0.4,0.7-0.5c0.3-0.2,0.5-0.4,0.8-0.6c0.2-0.2,0.4-0.4,0.7-0.6c0.2-0.2,0.5-0.4,0.7-0.6
				c0.1-0.1,0.2-0.2,0.3-0.2c0.2-0.2,0.4-0.3,0.5-0.5c0.1-0.1,0.1-0.1,0.2-0.2c0.3-0.3,0.7-0.7,1-1c0.1-0.1,0.1-0.2,0.2-0.3
				c0.3-0.3,0.5-0.6,0.8-0.9c0.1-0.1,0.1-0.1,0.2-0.2c0,0,0.1-0.1,0.1-0.1c0.1-0.1,0.2-0.2,0.3-0.3c0.2-0.3,0.5-0.6,0.7-0.9
				c0.1-0.2,0.2-0.3,0.3-0.5c0.2-0.3,0.4-0.6,0.5-0.9c0-0.1,0.1-0.2,0.1-0.2c0.1-0.1,0.1-0.2,0.2-0.4c0.1-0.2,0.3-0.5,0.4-0.7
				c0.1-0.2,0.2-0.4,0.3-0.6c0.1-0.2,0.2-0.5,0.3-0.7c0-0.1,0.1-0.2,0.1-0.3c0-0.1,0.1-0.2,0.1-0.3c0.1-0.2,0.2-0.5,0.2-0.7
				c0.1-0.2,0.1-0.4,0.2-0.6c0.1-0.2,0.1-0.5,0.2-0.7c0-0.1,0.1-0.3,0.1-0.4c0-0.1,0-0.2,0-0.3c0-0.2,0.1-0.5,0.1-0.7
				c0-0.2,0.1-0.4,0.1-0.6c0-0.2,0-0.5,0.1-0.7c0-0.1,0-0.3,0-0.4c0-0.1,0-0.3,0-0.4l0-17.4C168.1,142.4,168.1,142.7,168.1,143z"/>
			<linearGradient id="SVGID_16_" gradientUnits="userSpaceOnUse" x1="120.0414" y1="172.4055" x2="120.0414" y2="112.8493">
				<stop  offset="0" style="stop-color:#FFE7A3"/>
				<stop  offset="0.5" style="stop-color:#FFCA05"/>
				<stop  offset="1" style="stop-color:#FAAC18"/>
			</linearGradient>
			<path class="st15" d="M153.9,122.3c-18.8-10.9-49.3-10.9-68,0c-18.7,10.9-18.6,28.5,0.2,39.4c18.8,10.9,49.3,10.9,68,0
				C172.8,150.8,172.7,133.2,153.9,122.3z"/>
			<linearGradient id="SVGID_17_" gradientUnits="userSpaceOnUse" x1="120.0412" y1="120.5538" x2="120.0412" y2="165.2729">
				<stop  offset="0" style="stop-color:#FFE7A3"/>
				<stop  offset="0.5" style="stop-color:#FFCA05"/>
				<stop  offset="1" style="stop-color:#FAAC18"/>
			</linearGradient>
			<path class="st16" d="M120.2,163.4c-11.4,0-22.5-2.6-30.5-7.2c-6.7-3.9-10.6-8.8-10.6-13.6c0-4.7,3.8-9.6,10.4-13.4
				c7.9-4.6,18.9-7.2,30.4-7.2c11.4,0,22.5,2.6,30.5,7.2c6.7,3.9,10.6,8.8,10.6,13.6c0,4.7-3.8,9.6-10.4,13.4
				C142.7,160.8,131.6,163.4,120.2,163.4C120.2,163.4,120.2,163.4,120.2,163.4z"/>
			<linearGradient id="SVGID_18_" gradientUnits="userSpaceOnUse" x1="79.1118" y1="130.796" x2="160.9707" y2="130.796">
				<stop  offset="0" style="stop-color:#D68024"/>
				<stop  offset="1" style="stop-color:#D59417"/>
			</linearGradient>
			<path class="st17" d="M89.5,129.2c7.9-4.6,18.9-7.2,30.4-7.2c11.4,0,22.5,2.6,30.5,7.2c6.2,3.6,10,8.1,10.5,12.5
				c0-0.4,0.1-0.7,0.1-1.1c0-4.7-3.9-9.7-10.6-13.6c-7.9-4.6-19-7.2-30.5-7.2c-11.4,0-22.5,2.6-30.4,7.2
				c-6.6,3.9-10.4,8.7-10.4,13.4c0,0.4,0,0.7,0.1,1.1C79.7,137.2,83.4,132.8,89.5,129.2z"/>
			<g>
				<linearGradient id="SVGID_19_" gradientUnits="userSpaceOnUse" x1="101.3218" y1="131.431" x2="103.8013" y2="131.431">
					<stop  offset="0" style="stop-color:#D68024"/>
					<stop  offset="1" style="stop-color:#D59417"/>
				</linearGradient>
				<polygon class="st18" points="101.3,129.1 101.3,132.3 103.8,133.7 103.8,130.6 				"/>
				<linearGradient id="SVGID_20_" gradientUnits="userSpaceOnUse" x1="109.3262" y1="134.6984" x2="115.8765" y2="134.6984">
					<stop  offset="0" style="stop-color:#D68024"/>
					<stop  offset="1" style="stop-color:#D59417"/>
				</linearGradient>
				<path class="st19" d="M114.6,133.5c-0.3-0.2-0.6-0.3-0.9-0.5c-0.1,0-0.1-0.1-0.2-0.1c-0.2-0.1-0.4-0.2-0.6-0.3
					c-0.1,0-0.1-0.1-0.2-0.1c-0.2-0.1-0.4-0.2-0.6-0.2c0,0,0,0,0,0c0,0-0.1,0-0.1,0c-0.1,0-0.2-0.1-0.3-0.1c0,0-0.1,0-0.1,0
					c0,0,0,0,0,0c-0.1,0-0.1,0-0.2,0c0,0-0.1,0-0.1,0c0,0-0.1,0-0.1,0c0,0,0,0,0,0c0,0,0,0,0,0c0,0-0.1,0-0.1,0c0,0-0.1,0-0.1,0
					c0,0-0.1,0-0.1,0c0,0,0,0,0,0c0,0,0,0,0,0c-0.1,0-0.2,0-0.3,0.1c0,0,0,0,0,0c-0.2,0.1-0.3,0.1-0.5,0.2c0,0,0,0,0,0
					c0,0,0,0-0.1,0c-0.1,0-0.1,0.1-0.2,0.1c0,0,0,0,0,0c0,0-0.1,0.1-0.1,0.1c0,0,0,0,0,0c0,0,0,0,0,0c0,0,0,0.1-0.1,0.1
					c0,0,0,0.1,0,0.1c0,0,0,0,0,0c0,0,0,0,0,0c0,0,0,0.1,0,0.1c0,0,0,0.1,0,0.1c0,0,0,0,0,0l0,3.2c0-0.1,0-0.1,0-0.2c0,0,0,0,0,0
					c0-0.1,0.1-0.1,0.1-0.2c0,0,0,0,0,0c0,0,0.1-0.1,0.1-0.1c0.1,0,0.1-0.1,0.2-0.1c0,0,0.1,0,0.1-0.1c0.2-0.1,0.3-0.2,0.5-0.2
					c0.1,0,0.2-0.1,0.4-0.1c0,0,0,0,0,0c0.1,0,0.3,0,0.4,0c0,0,0,0,0,0c0.1,0,0.3,0,0.4,0.1c0.1,0,0.3,0.1,0.4,0.1c0,0,0.1,0,0.1,0
					c0.2,0.1,0.4,0.2,0.6,0.3c0.1,0,0.1,0.1,0.2,0.1c0.2,0.1,0.4,0.2,0.6,0.3c0.1,0,0.1,0.1,0.2,0.1c0.3,0.1,0.5,0.3,0.9,0.5
					l1.3,0.7l0-3.2L114.6,133.5z"/>
				<linearGradient id="SVGID_21_" gradientUnits="userSpaceOnUse" x1="115.8672" y1="133.5655" x2="123.5449" y2="133.5655">
					<stop  offset="0" style="stop-color:#D68024"/>
					<stop  offset="1" style="stop-color:#D59417"/>
				</linearGradient>
				<polygon class="st20" points="115.9,134.2 115.9,137.4 123.5,132.9 123.5,129.7 				"/>
				<linearGradient id="SVGID_22_" gradientUnits="userSpaceOnUse" x1="100.3789" y1="141.3953" x2="132.4023" y2="141.3953">
					<stop  offset="0" style="stop-color:#D68024"/>
					<stop  offset="1" style="stop-color:#D59417"/>
				</linearGradient>
				<path class="st21" d="M132.4,144.3c0-0.1,0-0.1,0-0.2c-0.1-0.4-0.5-0.7-1.2-1.1c-0.4-0.2-0.8-0.4-1.1-0.6
					c-0.1-0.1-0.2-0.1-0.3-0.2c-0.2-0.1-0.5-0.2-0.7-0.4c-0.1,0-0.2-0.1-0.3-0.1c-0.3-0.1-0.5-0.2-0.7-0.3c0,0-0.1,0-0.1,0
					c0,0,0,0,0,0c-0.3-0.1-0.5-0.2-0.8-0.3c0,0,0,0,0,0c-0.1,0-0.2-0.1-0.3-0.1c0,0,0,0,0,0c0,0-0.1,0-0.1,0c-0.1,0-0.1,0-0.2,0
					c0,0-0.1,0-0.1,0c-0.1,0-0.1,0-0.2,0c0,0-0.1,0-0.1,0c-0.1,0-0.1,0-0.2,0c-0.1,0-0.2,0-0.3,0c0,0-0.1,0-0.1,0c0,0-0.1,0-0.1,0
					c-0.2,0-0.3,0-0.5,0c0,0-0.1,0-0.1,0c0,0-0.1,0-0.1,0c-0.1,0-0.2,0-0.3,0c-0.1,0-0.2,0-0.4,0c-0.1,0-0.2,0-0.3,0
					c-0.1,0-0.2,0-0.2,0c0,0-0.1,0-0.1,0c-0.3,0-0.7,0.1-1,0.1c-0.4,0.1-0.8,0.1-1.2,0.2c-0.1,0-0.2,0-0.3,0c-0.4,0-0.8,0.1-1.1,0.1
					c0,0,0,0,0,0c-0.3,0-0.7,0.1-1,0.1c-0.1,0-0.2,0-0.3,0c-0.3,0-0.6,0.1-0.9,0.1c0,0,0,0-0.1,0c-0.3,0-0.5,0.1-0.8,0.1
					c-0.1,0-0.1,0-0.2,0c-0.3,0-0.5,0.1-0.8,0.1c0,0,0,0,0,0c-0.2,0-0.4,0-0.6,0.1c-0.1,0-0.1,0-0.1,0c-0.2,0-0.4,0-0.6,0
					c-0.3,0-0.6,0-1,0c-0.1,0-0.2,0-0.3,0c-0.4,0-0.8,0-1.2-0.1c-0.1,0-0.2,0-0.4,0c-0.3,0-0.6-0.1-0.9-0.1
					c-0.5-0.1-0.9-0.1-1.4-0.2c-0.3-0.1-0.7-0.2-1-0.2c-0.1,0-0.3-0.1-0.4-0.1c-0.1,0-0.2-0.1-0.3-0.1c-0.4-0.1-0.8-0.2-1.2-0.4
					c-0.3-0.1-0.5-0.2-0.8-0.3c-0.1-0.1-0.3-0.1-0.4-0.2c-0.4-0.2-0.8-0.4-1.2-0.6c-2.3-1.3-3.5-2.8-3.5-4.3l0,3.2
					c0,1.5,1.2,2.9,3.5,4.3c0.4,0.2,0.8,0.4,1.2,0.6c0.1,0.1,0.3,0.1,0.4,0.2c0.2,0.1,0.4,0.2,0.7,0.3c0,0,0.1,0,0.1,0
					c0.4,0.1,0.8,0.3,1.2,0.4c0.1,0,0.2,0.1,0.2,0.1c0,0,0,0,0,0c0.1,0,0.3,0.1,0.4,0.1c0.3,0.1,0.6,0.1,0.8,0.2c0.1,0,0.1,0,0.2,0
					c0.5,0.1,0.9,0.2,1.4,0.2c0,0,0,0,0,0c0.3,0,0.6,0.1,0.9,0.1c0.1,0,0.2,0,0.3,0c0,0,0,0,0,0c0.4,0,0.7,0,1.1,0.1
					c0,0,0.1,0,0.1,0c0.1,0,0.2,0,0.3,0c0.2,0,0.4,0,0.6,0c0.1,0,0.3,0,0.4,0c0.2,0,0.4,0,0.6,0c0,0,0.1,0,0.1,0
					c0.2,0,0.4,0,0.6-0.1c0,0,0,0,0,0c0.2,0,0.4,0,0.6-0.1c0.1,0,0.1,0,0.2,0c0.1,0,0.1,0,0.2,0c0.3,0,0.5-0.1,0.8-0.1c0,0,0,0,0,0
					c0.3,0,0.6-0.1,0.9-0.1c0.1,0,0.2,0,0.2,0c0.3,0,0.7-0.1,1-0.1c0,0,0,0,0,0c0.4,0,0.7-0.1,1.1-0.1c0.1,0,0.2,0,0.3,0
					c0.4-0.1,0.8-0.1,1.2-0.2c0.4,0,0.7-0.1,1-0.1c0.1,0,0.2,0,0.4,0c0.1,0,0.2,0,0.3,0c0.1,0,0.3,0,0.4,0c0.1,0,0.2,0,0.3,0
					c0.1,0,0.2,0,0.3,0c0.2,0,0.3,0,0.5,0c0.1,0,0.2,0,0.2,0c0.1,0,0.2,0,0.3,0c0.1,0,0.2,0,0.3,0c0.1,0,0.1,0,0.2,0
					c0.1,0,0.2,0,0.3,0c0,0,0.1,0,0.1,0c0.1,0,0.3,0.1,0.4,0.1c0.2,0.1,0.5,0.2,0.8,0.3c0,0,0.1,0,0.1,0c0.2,0.1,0.5,0.2,0.7,0.3
					c0.1,0,0.2,0.1,0.3,0.1c0.2,0.1,0.5,0.2,0.7,0.4c0.1,0.1,0.2,0.1,0.3,0.2c0.4,0.2,0.7,0.4,1.1,0.6c0.7,0.4,1.1,0.8,1.2,1.1
					c0,0.1,0,0.1,0,0.2v0v0L132.4,144.3z"/>
				<linearGradient id="SVGID_23_" gradientUnits="userSpaceOnUse" x1="138.5781" y1="145.8351" x2="141.6465" y2="145.8351">
					<stop  offset="0" style="stop-color:#D68024"/>
					<stop  offset="1" style="stop-color:#D59417"/>
				</linearGradient>
				<path class="st22" d="M141.6,141.9c0,0.1,0,0.2,0,0.3c0,0.1,0,0.2,0,0.3c0,0.1,0,0.2-0.1,0.3c0,0.1-0.1,0.2-0.1,0.3
					c0,0.1-0.1,0.2-0.1,0.2c-0.1,0.1-0.1,0.3-0.2,0.4c-0.1,0.1-0.1,0.3-0.2,0.4c0,0,0,0,0,0.1c-0.1,0.2-0.2,0.3-0.4,0.5
					c-0.1,0.1-0.1,0.2-0.2,0.2c-0.1,0.1-0.2,0.2-0.3,0.3c-0.1,0.1-0.2,0.2-0.2,0.2c-0.1,0.1-0.2,0.2-0.4,0.4c-0.1,0-0.1,0.1-0.2,0.1
					c-0.2,0.2-0.4,0.3-0.6,0.5c0,0,0,0,0,0l0,3.2c0.2-0.2,0.4-0.3,0.6-0.5c0.1,0,0.1-0.1,0.2-0.1c0.1-0.1,0.1-0.1,0.2-0.2
					c0.1-0.1,0.1-0.1,0.2-0.2c0.1-0.1,0.2-0.2,0.2-0.2c0.1-0.1,0.2-0.2,0.3-0.3c0.1-0.1,0.1-0.2,0.2-0.2c0,0,0,0,0.1-0.1
					c0.1-0.1,0.2-0.3,0.3-0.4c0,0,0-0.1,0-0.1c0.1-0.1,0.1-0.2,0.2-0.3c0,0,0-0.1,0-0.1c0.1-0.1,0.1-0.3,0.2-0.4
					c0-0.1,0.1-0.1,0.1-0.2c0,0,0,0,0-0.1c0-0.1,0.1-0.2,0.1-0.3c0-0.1,0-0.1,0.1-0.2c0,0,0,0,0-0.1c0-0.1,0-0.2,0-0.3
					c0-0.1,0-0.1,0-0.2c0,0,0-0.1,0-0.1l0,0L141.6,141.9z"/>
				<linearGradient id="SVGID_24_" gradientUnits="userSpaceOnUse" x1="134.9497" y1="150.9996" x2="137.9614" y2="150.9996">
					<stop  offset="0" style="stop-color:#D68024"/>
					<stop  offset="1" style="stop-color:#D59417"/>
				</linearGradient>
				<polygon class="st23" points="135,148.5 134.9,151.7 138,153.5 138,150.3 				"/>
				<linearGradient id="SVGID_25_" gradientUnits="userSpaceOnUse" x1="137.9521" y1="150.8411" x2="141.4897" y2="150.8411">
					<stop  offset="0" style="stop-color:#D68024"/>
					<stop  offset="1" style="stop-color:#D59417"/>
				</linearGradient>
				<polygon class="st24" points="138,150.3 138,153.5 141.5,151.4 141.5,148.2 				"/>
				<linearGradient id="SVGID_26_" gradientUnits="userSpaceOnUse" x1="150.4444" y1="138.5404" x2="92.4082" y2="138.5404">
					<stop  offset="0" style="stop-color:#FFE7A3"/>
					<stop  offset="0.5" style="stop-color:#FFCA05"/>
					<stop  offset="1" style="stop-color:#FAAC18"/>
				</linearGradient>
				<path class="st25" d="M141.6,141.4c-0.3-1.7-1.8-3.3-4.5-4.9c-1.7-1-3.4-1.7-5-2.1c-1.6-0.4-3.1-0.5-4.5-0.5
					c-1.3,0.1-3.6,0.3-6.7,0.7c-3.7,0.5-6,0.8-7,0.8c-1,0-2-0.4-3.3-1c-0.7-0.4-1.2-0.8-1.3-1.2c-0.1-0.3,0-0.6,0.5-0.9
					c0.6-0.3,1.2-0.4,1.8-0.3c0.6,0.1,1.6,0.6,2.9,1.4l1.3,0.7l7.7-4.5c-0.6-0.4-1.1-0.7-1.4-0.9c-2.3-1.3-4.7-2-7.1-2.1
					c-2.5-0.1-5,0.5-7.7,1.7l-2.5-1.4l-3.5,2.1l2.5,1.4c-2.3,1.7-3.4,3.3-3.4,4.8c0,1.5,1.2,2.9,3.5,4.3c1.6,0.9,3.3,1.6,5.2,1.9
					c1.9,0.4,3.6,0.5,5.1,0.4c1.5-0.1,4.2-0.4,8-0.9c2.3-0.3,3.9-0.3,4.9,0c1,0.3,2.3,0.9,4.1,1.9c0.7,0.4,1.1,0.8,1.2,1.1
					c0.1,0.4-0.1,0.7-0.6,1c-0.6,0.4-1.2,0.4-1.9,0.2c-0.7-0.2-2-0.9-4.1-2.1l-1.9-1.1l-7.7,4.5l1.5,0.9c3.4,2,6.6,2.9,9.5,2.8
					c2.9-0.1,5.5-0.7,7.8-1.7l3,1.7l3.5-2.1l-2.9-1.7C140.9,144.8,141.9,143.1,141.6,141.4z"/>
				<linearGradient id="SVGID_27_" gradientUnits="userSpaceOnUse" x1="116.1606" y1="150.028" x2="134.959" y2="150.028">
					<stop  offset="0" style="stop-color:#D68024"/>
					<stop  offset="1" style="stop-color:#D59417"/>
				</linearGradient>
				<path class="st26" d="M135,148.5c-0.3,0.1-0.6,0.3-0.9,0.4c-0.1,0-0.2,0.1-0.3,0.1c-0.2,0.1-0.4,0.2-0.7,0.2
					c-0.1,0-0.2,0.1-0.4,0.1c-0.2,0.1-0.5,0.1-0.7,0.2c-0.1,0-0.3,0.1-0.4,0.1c-0.3,0.1-0.5,0.1-0.8,0.2c-0.1,0-0.2,0-0.3,0.1
					c-0.5,0.1-1,0.1-1.4,0.2c-0.1,0-0.2,0-0.3,0c-0.4,0-0.8,0.1-1.3,0.1c-0.1,0-0.1,0-0.2,0c-0.3,0-0.6,0-1,0c-0.1,0-0.2,0-0.2,0
					c-0.3,0-0.6-0.1-1-0.1c0,0,0,0,0,0c-0.3,0-0.7-0.1-1-0.2c-0.2,0-0.4-0.1-0.6-0.1c-0.2-0.1-0.4-0.1-0.6-0.2
					c-0.1,0-0.2-0.1-0.3-0.1c-0.3-0.1-0.6-0.2-0.8-0.3c-0.1,0-0.2-0.1-0.3-0.1c-0.4-0.1-0.7-0.3-1.1-0.4c0,0,0,0-0.1,0
					c-0.4-0.2-0.7-0.3-1.1-0.5c-0.1,0-0.2-0.1-0.3-0.1c-0.4-0.2-0.8-0.4-1.1-0.6l-1.5-0.9l0,3.2l1.5,0.9c0.4,0.2,0.8,0.4,1.1,0.6
					c0.1,0,0.2,0.1,0.3,0.1c0.4,0.2,0.7,0.3,1.1,0.5c0,0,0,0,0.1,0c0.3,0.1,0.6,0.2,0.8,0.4c0.1,0,0.2,0.1,0.2,0.1
					c0.1,0,0.2,0.1,0.3,0.1c0.3,0.1,0.6,0.2,0.8,0.3c0.1,0,0.2,0.1,0.3,0.1c0,0,0.1,0,0.1,0c0.2,0,0.3,0.1,0.5,0.1
					c0.2,0.1,0.4,0.1,0.6,0.1c0,0,0.1,0,0.1,0c0.3,0.1,0.6,0.1,0.9,0.2c0,0,0,0,0,0c0,0,0,0,0,0c0.3,0,0.5,0.1,0.7,0.1
					c0.1,0,0.1,0,0.2,0c0.1,0,0.2,0,0.2,0c0.1,0,0.2,0,0.3,0c0.2,0,0.5,0,0.7,0c0,0,0,0,0.1,0c0,0,0.1,0,0.1,0c0.4,0,0.8,0,1.3-0.1
					c0.1,0,0.1,0,0.2,0c0.1,0,0.1,0,0.2,0c0.5-0.1,1-0.1,1.4-0.2c0,0,0,0,0.1,0c0.1,0,0.2,0,0.2,0c0.3-0.1,0.6-0.1,0.8-0.2
					c0.1,0,0.3-0.1,0.4-0.1c0.2-0.1,0.5-0.1,0.7-0.2c0.1,0,0.1,0,0.2-0.1c0,0,0.1,0,0.1-0.1c0.2-0.1,0.5-0.2,0.7-0.2
					c0.1,0,0.2-0.1,0.3-0.1c0.3-0.1,0.6-0.3,0.9-0.4l0,0l0,0L135,148.5z"/>
			</g>
		</g>
		<linearGradient id="SVGID_28_" gradientUnits="userSpaceOnUse" x1="120.0468" y1="178.233" x2="120.0468" y2="150.3677">
			<stop  offset="0" style="stop-color:#FFFFFF"/>
			<stop  offset="1" style="stop-color:#FFFFFF;stop-opacity:0"/>
		</linearGradient>
		<path class="st27" d="M86.2,163.9c18.8,11.4,49.3,11.4,68,0c9.3-5.7,14-13.1,14-20.5l0-0.2c0-0.2,0-0.3,0-0.5c0,0.1,0,0.2,0,0.2
			c0,0.2,0,0.5-0.1,0.7c0,0.2-0.1,0.4-0.1,0.6c0,0.2-0.1,0.5-0.1,0.7c0,0.2-0.1,0.4-0.1,0.6c-0.1,0.2-0.1,0.5-0.2,0.7
			c-0.1,0.2-0.1,0.4-0.2,0.6c-0.1,0.2-0.1,0.5-0.2,0.7c-0.1,0.2-0.2,0.4-0.2,0.6c-0.1,0.2-0.2,0.5-0.3,0.7c-0.1,0.2-0.2,0.4-0.3,0.6
			c-0.1,0.2-0.2,0.5-0.4,0.7c-0.1,0.2-0.2,0.4-0.3,0.6c-0.2,0.3-0.3,0.6-0.5,0.9c-0.1,0.2-0.2,0.3-0.3,0.5c-0.2,0.3-0.4,0.6-0.7,0.9
			c-0.1,0.1-0.2,0.3-0.3,0.4c-0.1,0.1-0.1,0.1-0.2,0.2c-0.3,0.3-0.5,0.6-0.8,0.9c-0.1,0.1-0.1,0.2-0.2,0.2c-0.3,0.4-0.7,0.7-1,1
			c-0.1,0.1-0.1,0.1-0.2,0.2c-0.3,0.3-0.5,0.5-0.8,0.8c-0.2,0.2-0.5,0.4-0.7,0.6c-0.2,0.2-0.4,0.4-0.7,0.6c-0.2,0.2-0.5,0.4-0.8,0.6
			c-0.2,0.2-0.5,0.4-0.7,0.5c-0.3,0.2-0.5,0.4-0.8,0.6c-0.3,0.2-0.5,0.3-0.8,0.5c-0.3,0.2-0.6,0.4-0.9,0.6c-0.4,0.2-0.7,0.5-1.1,0.7
			c-0.7,0.4-1.5,0.8-2.2,1.2c-0.2,0.1-0.4,0.2-0.7,0.3c-0.6,0.3-1.2,0.6-1.8,0.8c-0.2,0.1-0.4,0.2-0.6,0.3c-0.8,0.3-1.6,0.7-2.4,1
			c-0.1,0.1-0.3,0.1-0.4,0.2c-0.7,0.3-1.4,0.5-2.1,0.7c-0.3,0.1-0.6,0.2-0.9,0.3c-0.4,0.1-0.8,0.2-1.2,0.4c-0.3,0.1-0.7,0.2-1,0.3
			c-0.4,0.1-0.8,0.2-1.2,0.3c-0.3,0.1-0.7,0.2-1,0.3c-0.4,0.1-0.8,0.2-1.2,0.3c-0.3,0.1-0.7,0.2-1,0.2c-0.4,0.1-0.8,0.2-1.3,0.2
			c-0.3,0.1-0.6,0.1-1,0.2c-0.9,0.2-1.8,0.3-2.7,0.4c-0.1,0-0.3,0-0.4,0c-0.8,0.1-1.6,0.2-2.4,0.3c-0.3,0-0.6,0.1-0.9,0.1
			c-0.5,0-1,0.1-1.5,0.1c-0.3,0-0.6,0-1,0.1c-0.5,0-1.1,0.1-1.6,0.1c-0.3,0-0.6,0-0.9,0c-0.5,0-0.9,0-1.4,0c-0.3,0-0.7,0-1,0
			c-0.5,0-1,0-1.5,0c-0.3,0-0.6,0-0.9,0c-0.5,0-0.9,0-1.4-0.1c-0.3,0-0.6,0-1,0c-0.5,0-1-0.1-1.5-0.1c-0.3,0-0.6,0-0.8-0.1
			c-0.6,0-1.2-0.1-1.8-0.2c-0.2,0-0.3,0-0.5-0.1c-0.8-0.1-1.5-0.2-2.3-0.3c-0.1,0-0.3,0-0.4-0.1c-0.6-0.1-1.3-0.2-1.9-0.3
			c-0.3,0-0.5-0.1-0.8-0.2c-0.5-0.1-1-0.2-1.5-0.3c-0.3-0.1-0.5-0.1-0.8-0.2c-0.5-0.1-1.1-0.2-1.6-0.4c-0.3-0.1-0.6-0.1-0.9-0.2
			c-0.5-0.1-1-0.3-1.5-0.4c-0.3-0.1-0.5-0.2-0.8-0.2c-0.8-0.2-1.5-0.5-2.3-0.7c-0.1,0-0.3-0.1-0.4-0.1c-0.9-0.3-1.7-0.6-2.5-0.9
			c-0.3-0.1-0.7-0.3-1-0.4c-0.3-0.1-0.5-0.2-0.8-0.3c-0.4-0.2-0.7-0.3-1.1-0.5c-0.2-0.1-0.5-0.2-0.7-0.3c-0.4-0.2-0.8-0.4-1.2-0.6
			c-0.2-0.1-0.4-0.2-0.6-0.3c-0.6-0.3-1.2-0.6-1.7-1c-9.2-5.3-13.9-12.2-14.2-19.1C71.7,150.3,76.4,158,86.2,163.9z"/>
	</g>
</g>
</svg>
