<?xml version="1.0" encoding="utf-8"?>
<!-- Generator: Adobe Illustrator 22.0.0, SVG Export Plug-In . SVG Version: 6.00 Build 0)  -->
<svg version="1.1" id="Layer_1" xmlns="http://www.w3.org/2000/svg" xmlns:xlink="http://www.w3.org/1999/xlink" x="0px" y="0px"
	 viewBox="0 0 239.1 216.2" style="enable-background:new 0 0 239.1 216.2;" xml:space="preserve">
<style type="text/css">
	.st0{fill:url(#SVGID_1_);}
	.st1{fill:url(#SVGID_2_);}
	.st2{fill:url(#SVGID_3_);}
	.st3{fill:url(#SVGID_4_);}
	.st4{fill:url(#SVGID_5_);}
	.st5{fill:url(#SVGID_6_);}
	.st6{fill:url(#SVGID_7_);}
	.st7{fill:url(#SVGID_8_);}
	.st8{enable-background:new    ;}
	.st9{clip-path:url(#SVGID_10_);enable-background:new    ;}
	.st10{fill:url(#SVGID_11_);}
	.st11{fill:url(#SVGID_12_);}
	.st12{fill:url(#SVGID_13_);}
	.st13{fill:url(#SVGID_14_);}
	.st14{fill:url(#SVGID_15_);}
	.st15{fill:url(#SVGID_16_);}
	.st16{fill:url(#SVGID_17_);}
	.st17{fill:url(#SVGID_18_);}
</style>
<g>
	<g>
		<linearGradient id="SVGID_1_" gradientUnits="userSpaceOnUse" x1="72.0175" y1="181.831" x2="168.1973" y2="181.831">
			<stop  offset="0" style="stop-color:#D68024"/>
			<stop  offset="1" style="stop-color:#D59417"/>
		</linearGradient>
		<path class="st0" d="M168.2,160.2c0,0.2,0,0.5-0.1,0.7c0,0.2-0.1,0.4-0.1,0.6c0,0.2-0.1,0.5-0.1,0.7c0,0.2-0.1,0.4-0.1,0.6
			c-0.1,0.2-0.1,0.5-0.2,0.7c-0.1,0.2-0.1,0.4-0.2,0.6c-0.1,0.2-0.1,0.5-0.2,0.7c-0.1,0.2-0.2,0.4-0.2,0.6c-0.1,0.2-0.2,0.5-0.3,0.7
			c-0.1,0.2-0.2,0.4-0.3,0.6c-0.1,0.2-0.2,0.5-0.4,0.7c-0.1,0.2-0.2,0.4-0.3,0.6c-0.2,0.3-0.3,0.6-0.5,0.9c-0.1,0.2-0.2,0.3-0.3,0.5
			c-0.2,0.3-0.4,0.6-0.7,0.9c-0.1,0.1-0.2,0.3-0.3,0.4c-0.1,0.1-0.1,0.1-0.2,0.2c-0.3,0.3-0.5,0.6-0.8,0.9c-0.1,0.1-0.1,0.2-0.2,0.2
			c-0.3,0.4-0.7,0.7-1,1c-0.1,0.1-0.1,0.1-0.2,0.2c-0.3,0.3-0.5,0.5-0.8,0.8c-0.2,0.2-0.5,0.4-0.7,0.6c-0.2,0.2-0.4,0.4-0.7,0.6
			c-0.2,0.2-0.5,0.4-0.8,0.6c-0.2,0.2-0.5,0.4-0.7,0.5c-0.3,0.2-0.5,0.4-0.8,0.6c-0.3,0.2-0.5,0.3-0.8,0.5c-0.3,0.2-0.6,0.4-0.9,0.6
			c-0.4,0.2-0.7,0.5-1.1,0.7c-0.7,0.4-1.5,0.8-2.2,1.2c-0.2,0.1-0.4,0.2-0.7,0.3c-0.6,0.3-1.2,0.6-1.8,0.8c-0.2,0.1-0.4,0.2-0.6,0.3
			c-0.8,0.3-1.6,0.7-2.4,1c-0.1,0.1-0.3,0.1-0.4,0.2c-0.7,0.3-1.4,0.5-2.1,0.7c-0.3,0.1-0.6,0.2-0.9,0.3c-0.4,0.1-0.8,0.2-1.2,0.4
			c-0.3,0.1-0.7,0.2-1,0.3c-0.4,0.1-0.8,0.2-1.2,0.3c-0.3,0.1-0.7,0.2-1,0.3c-0.4,0.1-0.8,0.2-1.2,0.3c-0.3,0.1-0.7,0.2-1,0.2
			c-0.4,0.1-0.8,0.2-1.3,0.2c-0.3,0.1-0.6,0.1-1,0.2c-0.9,0.2-1.8,0.3-2.7,0.4c-0.1,0-0.3,0-0.4,0c-0.8,0.1-1.6,0.2-2.4,0.3
			c-0.3,0-0.6,0.1-0.9,0.1c-0.5,0-1,0.1-1.5,0.1c-0.3,0-0.6,0-1,0.1c-0.5,0-1.1,0.1-1.6,0.1c-0.3,0-0.6,0-0.9,0c-0.5,0-0.9,0-1.4,0
			c-0.3,0-0.7,0-1,0c-0.5,0-1,0-1.5,0c-0.3,0-0.6,0-0.9,0c-0.5,0-0.9,0-1.4-0.1c-0.3,0-0.6,0-1,0c-0.5,0-1-0.1-1.5-0.1
			c-0.3,0-0.6,0-0.8-0.1c-0.6,0-1.2-0.1-1.8-0.2c-0.2,0-0.3,0-0.5-0.1c-0.8-0.1-1.5-0.2-2.3-0.3c-0.1,0-0.3,0-0.4-0.1
			c-0.6-0.1-1.3-0.2-1.9-0.3c-0.3,0-0.5-0.1-0.8-0.2c-0.5-0.1-1-0.2-1.5-0.3c-0.3-0.1-0.5-0.1-0.8-0.2c-0.5-0.1-1.1-0.2-1.6-0.4
			c-0.3-0.1-0.6-0.1-0.9-0.2c-0.5-0.1-1-0.3-1.5-0.4c-0.3-0.1-0.5-0.2-0.8-0.2c-0.8-0.2-1.5-0.5-2.3-0.7c-0.1,0-0.3-0.1-0.4-0.1
			c-0.9-0.3-1.7-0.6-2.5-0.9c-0.3-0.1-0.7-0.3-1-0.4c-0.3-0.1-0.5-0.2-0.8-0.3c-0.4-0.2-0.7-0.3-1.1-0.5c-0.2-0.1-0.5-0.2-0.7-0.3
			c-0.4-0.2-0.8-0.4-1.2-0.6c-0.2-0.1-0.4-0.2-0.6-0.3c-0.6-0.3-1.2-0.6-1.7-1c-9.5-5.5-14.2-12.7-14.2-19.8l0,17.5
			c0,7.2,4.7,14.4,14.2,19.8c0.6,0.3,1.1,0.6,1.7,1c0.2,0.1,0.4,0.2,0.6,0.3c0.4,0.2,0.8,0.4,1.2,0.6c0.2,0.1,0.5,0.2,0.7,0.3
			c0.4,0.2,0.7,0.3,1.1,0.5c0.3,0.1,0.5,0.2,0.8,0.3c0.3,0.1,0.5,0.2,0.8,0.3c0.1,0,0.2,0.1,0.2,0.1c0.8,0.3,1.7,0.6,2.5,0.9
			c0.1,0,0.3,0.1,0.4,0.1c0.7,0.2,1.5,0.5,2.3,0.7c0.1,0,0.3,0.1,0.4,0.1c0.1,0,0.3,0.1,0.4,0.1c0.5,0.1,1,0.3,1.5,0.4
			c0.3,0.1,0.6,0.2,0.9,0.2c0.5,0.1,1.1,0.2,1.6,0.4c0.2,0,0.4,0.1,0.6,0.1c0.1,0,0.1,0,0.2,0c0.5,0.1,1,0.2,1.5,0.3
			c0.3,0,0.5,0.1,0.8,0.2c0.7,0.1,1.3,0.2,2,0.3c0.1,0,0.2,0,0.3,0.1c0,0,0,0,0,0c0.8,0.1,1.5,0.2,2.3,0.3c0.2,0,0.3,0,0.5,0.1
			c0.6,0.1,1.2,0.1,1.8,0.2c0,0,0,0,0,0c0.3,0,0.5,0,0.8,0.1c0.5,0,1,0.1,1.5,0.1c0.3,0,0.6,0,1,0c0.5,0,0.9,0,1.4,0.1
			c0,0,0.1,0,0.1,0c0.3,0,0.5,0,0.8,0c0.5,0,1,0,1.5,0c0.3,0,0.7,0,1,0c0.5,0,0.9,0,1.4,0c0.1,0,0.2,0,0.3,0c0.2,0,0.4,0,0.7,0
			c0.5,0,1.1,0,1.6-0.1c0.3,0,0.6,0,1-0.1c0.5,0,1-0.1,1.5-0.1c0.2,0,0.4,0,0.5,0c0.1,0,0.2,0,0.4,0c0.8-0.1,1.6-0.2,2.4-0.3
			c0.1,0,0.3,0,0.4,0c0.9-0.1,1.8-0.3,2.7-0.4c0.1,0,0.2,0,0.3,0c0.2,0,0.5-0.1,0.7-0.1c0.4-0.1,0.8-0.2,1.3-0.2
			c0.3-0.1,0.7-0.1,1-0.2c0.4-0.1,0.8-0.2,1.2-0.3c0.3-0.1,0.7-0.2,1-0.3c0.4-0.1,0.8-0.2,1.2-0.3c0.3-0.1,0.7-0.2,1-0.3
			c0.4-0.1,0.8-0.2,1.2-0.4c0.2-0.1,0.3-0.1,0.5-0.2c0.1,0,0.2-0.1,0.4-0.1c0.7-0.2,1.4-0.5,2.1-0.7c0.1-0.1,0.3-0.1,0.4-0.2
			c0.8-0.3,1.6-0.6,2.4-1c0.2-0.1,0.4-0.2,0.6-0.3c0.6-0.3,1.2-0.6,1.8-0.8c0.2-0.1,0.4-0.2,0.7-0.3c0.8-0.4,1.5-0.8,2.2-1.2
			c0.2-0.1,0.4-0.2,0.6-0.3c0.2-0.1,0.3-0.2,0.5-0.3c0.3-0.2,0.6-0.4,0.9-0.6c0.3-0.2,0.5-0.3,0.8-0.5c0.3-0.2,0.5-0.4,0.8-0.6
			c0.2-0.2,0.5-0.4,0.7-0.5c0.3-0.2,0.5-0.4,0.8-0.6c0.2-0.2,0.4-0.4,0.7-0.6c0.2-0.2,0.5-0.4,0.7-0.6c0.1-0.1,0.2-0.2,0.3-0.2
			c0.2-0.2,0.4-0.3,0.5-0.5c0.1-0.1,0.1-0.1,0.2-0.2c0.3-0.3,0.7-0.7,1-1c0.1-0.1,0.1-0.2,0.2-0.3c0.3-0.3,0.5-0.6,0.8-0.9
			c0.1-0.1,0.1-0.1,0.2-0.2c0,0,0.1-0.1,0.1-0.1c0.1-0.1,0.2-0.2,0.2-0.3c0.2-0.3,0.5-0.6,0.7-0.9c0.1-0.2,0.2-0.3,0.3-0.5
			c0.2-0.3,0.4-0.6,0.5-0.9c0-0.1,0.1-0.2,0.1-0.2c0.1-0.1,0.1-0.2,0.2-0.4c0.1-0.2,0.3-0.5,0.4-0.7c0.1-0.2,0.2-0.4,0.3-0.6
			c0.1-0.2,0.2-0.5,0.3-0.7c0-0.1,0.1-0.2,0.1-0.3c0-0.1,0.1-0.2,0.1-0.3c0.1-0.2,0.2-0.5,0.2-0.7c0.1-0.2,0.1-0.4,0.2-0.6
			c0.1-0.2,0.1-0.5,0.2-0.7c0-0.1,0.1-0.3,0.1-0.4c0-0.1,0-0.2,0-0.3c0-0.2,0.1-0.5,0.1-0.7c0-0.2,0.1-0.4,0.1-0.6
			c0-0.2,0-0.5,0.1-0.7c0-0.1,0-0.3,0-0.4c0-0.1,0-0.3,0-0.4l0-17.4C168.2,159.7,168.2,160,168.2,160.2z"/>
		<linearGradient id="SVGID_2_" gradientUnits="userSpaceOnUse" x1="120.1323" y1="187.4836" x2="120.1323" y2="131.011">
			<stop  offset="0" style="stop-color:#FFE7A3"/>
			<stop  offset="0.3895" style="stop-color:#FAAC18"/>
			<stop  offset="0.5" style="stop-color:#FFCA05"/>
		</linearGradient>
		<path class="st1" d="M154,139.6c-18.8-10.9-49.3-10.9-68,0c-18.7,10.9-18.6,28.5,0.2,39.4c18.8,10.9,49.3,10.9,68,0
			C172.9,168.1,172.8,150.4,154,139.6z"/>
		<linearGradient id="SVGID_3_" gradientUnits="userSpaceOnUse" x1="120.132" y1="135.6318" x2="120.132" y2="182.9643">
			<stop  offset="0" style="stop-color:#FFE7A3"/>
			<stop  offset="0.5" style="stop-color:#FFCA05"/>
			<stop  offset="1" style="stop-color:#FAAC18"/>
		</linearGradient>
		<path class="st2" d="M120.3,180.7c-11.4,0-22.5-2.6-30.5-7.2c-6.7-3.9-10.6-8.8-10.6-13.6c0-4.7,3.8-9.6,10.4-13.4
			c7.9-4.6,18.9-7.2,30.4-7.2c11.4,0,22.5,2.6,30.5,7.2c6.7,3.9,10.6,8.8,10.6,13.6c0,4.7-3.8,9.6-10.4,13.4
			C142.8,178.1,131.7,180.7,120.3,180.7C120.3,180.7,120.3,180.7,120.3,180.7z"/>
		<linearGradient id="SVGID_4_" gradientUnits="userSpaceOnUse" x1="79.2026" y1="148.0538" x2="161.0615" y2="148.0538">
			<stop  offset="0" style="stop-color:#D68024"/>
			<stop  offset="1" style="stop-color:#D59417"/>
		</linearGradient>
		<path class="st3" d="M89.6,146.5c7.9-4.6,18.9-7.2,30.4-7.2c11.4,0,22.5,2.6,30.5,7.2c6.2,3.6,10,8.1,10.5,12.5
			c0-0.4,0.1-0.7,0.1-1.1c0-4.7-3.9-9.7-10.6-13.6c-7.9-4.6-19-7.2-30.5-7.2c-11.4,0-22.5,2.6-30.4,7.2c-6.6,3.9-10.4,8.7-10.4,13.4
			c0,0.4,0,0.7,0.1,1.1C79.8,154.5,83.5,150,89.6,146.5z"/>
		<g>
			<linearGradient id="SVGID_5_" gradientUnits="userSpaceOnUse" x1="137.3965" y1="149.8742" x2="139.8599" y2="149.8742">
				<stop  offset="0" style="stop-color:#D68024"/>
				<stop  offset="1" style="stop-color:#D59417"/>
			</linearGradient>
			<polygon class="st4" points="137.4,149 137.4,152.2 139.9,150.8 139.9,147.6 			"/>
			<linearGradient id="SVGID_6_" gradientUnits="userSpaceOnUse" x1="125.3472" y1="153.0555" x2="131.3545" y2="153.0555">
				<stop  offset="0" style="stop-color:#D68024"/>
				<stop  offset="1" style="stop-color:#D59417"/>
			</linearGradient>
			<path class="st5" d="M131.4,151.2c0-0.2-0.2-0.5-0.6-0.7c-0.1-0.1-0.2-0.1-0.3-0.2c0,0,0,0,0,0c0,0,0,0,0,0c-0.1,0-0.1,0-0.2-0.1
				c-0.1,0-0.1,0-0.2,0c0,0,0,0,0,0c0,0,0,0,0,0c0,0-0.1,0-0.1,0c0,0-0.1,0-0.1,0c0,0-0.1,0-0.1,0h0c0,0,0,0,0,0c-0.1,0-0.1,0-0.2,0
				c-0.1,0-0.1,0-0.2,0c0,0-0.1,0-0.1,0c-0.1,0-0.1,0-0.2,0c0,0-0.1,0-0.1,0c-0.1,0-0.2,0-0.3,0.1c0,0-0.1,0-0.1,0c0,0-0.1,0-0.1,0
				c-0.1,0-0.3,0.1-0.4,0.2c-0.1,0-0.1,0-0.2,0.1c-0.2,0.1-0.4,0.2-0.6,0.3c-0.1,0-0.1,0.1-0.2,0.1c0,0,0,0-0.1,0
				c-0.2,0.1-0.3,0.2-0.5,0.3c0,0,0,0-0.1,0c-0.1,0.1-0.3,0.2-0.4,0.3c0,0,0,0,0,0c0,0,0,0,0,0c-0.1,0.1-0.2,0.2-0.2,0.2
				c0,0,0,0,0,0c0,0,0,0,0,0c0,0,0,0.1-0.1,0.1c0,0,0,0.1-0.1,0.1c0,0,0,0,0,0c0,0,0,0,0,0.1c0,0,0,0.1,0,0.1c0,0,0,0,0,0.1
				c0,0,0,0,0,0c0,0,0,0,0,0c0,0,0,0.1,0,0.1c0,0,0,0,0,0l0,0l0,3.2c0-0.1,0-0.1,0-0.2c0,0,0,0,0,0c0,0,0-0.1,0.1-0.1c0,0,0,0,0-0.1
				c0,0,0-0.1,0.1-0.1c0,0,0-0.1,0.1-0.1c0,0,0,0,0.1-0.1c0.1-0.1,0.1-0.2,0.2-0.2c0,0,0.1-0.1,0.1-0.1c0.1-0.1,0.2-0.2,0.4-0.3
				c0,0,0,0,0.1,0c0.1-0.1,0.3-0.2,0.5-0.3c0.1-0.1,0.2-0.1,0.2-0.2c0.2-0.1,0.4-0.2,0.6-0.3c0.1,0,0.1-0.1,0.2-0.1
				c0.1-0.1,0.3-0.1,0.4-0.2c0.1,0,0.1,0,0.2-0.1c0.1,0,0.2-0.1,0.3-0.1c0.1,0,0.2,0,0.3-0.1c0.1,0,0.3,0,0.4,0c0,0,0,0,0,0
				c0.1,0,0.3,0,0.4,0c0,0,0,0,0,0c0.1,0,0.2,0.1,0.4,0.1c0,0,0,0,0,0c0.1,0,0.2,0.1,0.4,0.2c0.2,0.1,0.4,0.2,0.5,0.4
				c0.1,0.1,0.2,0.2,0.2,0.4l0,0l0,0L131.4,151.2z"/>
			<linearGradient id="SVGID_7_" gradientUnits="userSpaceOnUse" x1="135.3022" y1="157.4223" x2="140.3809" y2="157.4223">
				<stop  offset="0" style="stop-color:#D68024"/>
				<stop  offset="1" style="stop-color:#D59417"/>
			</linearGradient>
			<path class="st6" d="M140.4,153.5c0,0.2,0,0.3-0.1,0.5c0,0.1,0,0.1-0.1,0.2c0,0.1-0.1,0.2-0.1,0.3c0,0.1-0.1,0.2-0.1,0.2
				c0,0.1-0.1,0.2-0.1,0.3c-0.1,0.1-0.1,0.2-0.2,0.3c-0.1,0.1-0.1,0.2-0.2,0.3c0,0-0.1,0.1-0.1,0.1c-0.1,0.1-0.2,0.3-0.4,0.4
				c0,0,0,0-0.1,0.1c-0.2,0.1-0.3,0.3-0.5,0.4c0,0-0.1,0.1-0.1,0.1c-0.2,0.1-0.4,0.3-0.6,0.4c0,0,0,0,0,0c-0.2,0.2-0.5,0.3-0.8,0.5
				c-0.2,0.1-0.4,0.2-0.6,0.3c-0.3,0.1-0.6,0.3-0.9,0.5l0,3.2c0.7-0.3,1.2-0.6,1.5-0.8c0.1-0.1,0.2-0.1,0.3-0.2
				c0.2-0.1,0.4-0.2,0.5-0.3c0,0,0,0,0,0c0.2-0.1,0.4-0.3,0.6-0.4c0,0,0.1-0.1,0.1-0.1c0.2-0.1,0.4-0.3,0.5-0.4c0,0,0,0,0,0
				c0,0,0,0,0.1-0.1c0.1-0.1,0.3-0.3,0.4-0.4c0,0,0.1-0.1,0.1-0.1c0,0,0.1-0.1,0.1-0.1c0,0,0.1-0.1,0.1-0.1c0.1-0.1,0.1-0.2,0.2-0.3
				c0,0,0.1-0.1,0.1-0.1v0l0,0v0c0-0.1,0-0.1,0.1-0.2c0-0.1,0.1-0.2,0.1-0.2c0,0,0-0.1,0.1-0.1c0-0.1,0-0.1,0.1-0.2
				c0-0.1,0-0.1,0.1-0.2c0,0,0-0.1,0-0.1c0-0.1,0-0.3,0-0.4c0,0,0-0.1,0-0.1c0,0,0-0.1,0-0.1l0-3.2
				C140.4,153.3,140.4,153.4,140.4,153.5z"/>
			<linearGradient id="SVGID_8_" gradientUnits="userSpaceOnUse" x1="127.5835" y1="157.7472" x2="135.3115" y2="157.7472">
				<stop  offset="0" style="stop-color:#D68024"/>
				<stop  offset="1" style="stop-color:#D59417"/>
			</linearGradient>
			<polygon class="st7" points="127.6,153.9 127.6,157.1 135.3,161.6 135.3,158.4 			"/>
			<g class="st8">
				<defs>
					<path id="SVGID_9_" class="st8" d="M116.2,159.3l0,3.2c0-0.5-0.1-1.1-0.4-1.8c-0.9-2.2-1.4-3.8-1.6-4.7c0-0.2,0-0.4,0-0.5
						l0-3.2c0,0.2,0,0.4,0,0.5c0.2,0.9,0.7,2.4,1.6,4.7C116,158.3,116.2,158.9,116.2,159.3z"/>
				</defs>
				<clipPath id="SVGID_10_">
					<use xlink:href="#SVGID_9_"  style="overflow:visible;"/>
				</clipPath>
				<g class="st9">
					<linearGradient id="SVGID_11_" gradientUnits="userSpaceOnUse" x1="114.1182" y1="157.4513" x2="116.168" y2="157.4513">
						<stop  offset="0" style="stop-color:#D68024"/>
						<stop  offset="1" style="stop-color:#D59417"/>
					</linearGradient>
					<path class="st10" d="M116.2,159.3l0,3.2c0-0.5-0.1-1.1-0.4-1.8c-0.9-2.2-1.4-3.8-1.6-4.7c0-0.2,0-0.4,0-0.5l0-3.2
						c0,0.2,0,0.4,0,0.5c0.2,0.9,0.7,2.4,1.6,4.7C116,158.3,116.2,158.9,116.2,159.3"/>
				</g>
			</g>
			<linearGradient id="SVGID_12_" gradientUnits="userSpaceOnUse" x1="108.2637" y1="162.0402" x2="113.9473" y2="162.0402">
				<stop  offset="0" style="stop-color:#D68024"/>
				<stop  offset="1" style="stop-color:#D59417"/>
			</linearGradient>
			<path class="st11" d="M112.1,159.6c-0.2,0.1-0.5,0.3-0.7,0.4c-0.1,0-0.1,0.1-0.2,0.1c-0.1,0.1-0.3,0.2-0.4,0.2c0,0,0,0,0,0
				c-0.3,0.2-0.5,0.3-0.7,0.4c-0.1,0-0.1,0.1-0.2,0.1c-0.2,0.1-0.3,0.2-0.4,0.3c-0.1,0-0.1,0.1-0.1,0.1c-0.1,0.1-0.3,0.2-0.4,0.3
				c0,0,0,0,0,0c-0.1,0.1-0.2,0.2-0.3,0.2c0,0,0,0,0,0c0,0-0.1,0.1-0.1,0.1c0,0,0,0,0,0c0,0-0.1,0.1-0.1,0.1c0,0,0,0,0,0
				c0,0,0,0,0,0c0,0,0,0,0,0c0,0,0,0.1,0,0.1c0,0,0,0.1,0,0.1c0,0,0,0,0,0l0,3.2c0-0.1,0-0.1,0-0.2c0,0,0,0,0,0
				c0-0.1,0.1-0.1,0.1-0.2c0,0,0.1-0.1,0.1-0.1c0.1-0.1,0.2-0.1,0.3-0.2c0,0,0,0,0,0c0.1-0.1,0.2-0.2,0.4-0.3c0,0,0.1-0.1,0.1-0.1
				c0.1-0.1,0.3-0.2,0.4-0.3c0.1,0,0.1-0.1,0.2-0.1c0.2-0.1,0.4-0.3,0.7-0.4c0.1-0.1,0.3-0.2,0.4-0.2c0.1,0,0.1-0.1,0.2-0.1
				c0.2-0.1,0.5-0.3,0.7-0.4l1.9-1.1l0-3.2L112.1,159.6z"/>
			<linearGradient id="SVGID_13_" gradientUnits="userSpaceOnUse" x1="99.834" y1="164.1515" x2="102.8989" y2="164.1515">
				<stop  offset="0" style="stop-color:#D68024"/>
				<stop  offset="1" style="stop-color:#D59417"/>
			</linearGradient>
			<path class="st12" d="M99.9,160.4c0-0.1,0-0.2,0-0.3v0v0l0,3.2c0,0.1,0,0.2,0,0.3c0.2,1.7,1.2,3.2,3,4.5l0-3.2
				C101,163.6,100,162.1,99.9,160.4z"/>
			<linearGradient id="SVGID_14_" gradientUnits="userSpaceOnUse" x1="103.4585" y1="169.4723" x2="106.3516" y2="169.4723">
				<stop  offset="0" style="stop-color:#D68024"/>
				<stop  offset="1" style="stop-color:#D59417"/>
			</linearGradient>
			<polygon class="st13" points="103.5,168.7 103.5,171.9 106.3,170.2 106.4,167 			"/>
			<linearGradient id="SVGID_15_" gradientUnits="userSpaceOnUse" x1="99.9067" y1="169.2848" x2="103.4673" y2="169.2848">
				<stop  offset="0" style="stop-color:#D68024"/>
				<stop  offset="1" style="stop-color:#D59417"/>
			</linearGradient>
			<polygon class="st14" points="99.9,166.7 99.9,169.9 103.5,171.9 103.5,168.7 			"/>
			<linearGradient id="SVGID_16_" gradientUnits="userSpaceOnUse" x1="152.676" y1="156.8868" x2="90.4017" y2="156.8868">
				<stop  offset="0" style="stop-color:#FFE7A3"/>
				<stop  offset="0.5" style="stop-color:#FFCA05"/>
				<stop  offset="1" style="stop-color:#FAAC18"/>
			</linearGradient>
			<path class="st15" d="M137.4,149l2.5-1.4l-3.6-2.1l-2.5,1.4c-2.9-1.3-5.7-2-8.3-2c-2.6,0-5.1,0.7-7.4,2c-1.6,0.9-2.7,1.9-3.3,3
				c-0.6,1.1-0.9,2.1-0.7,3c0.2,0.9,0.7,2.4,1.6,4.7c0.5,1.3,0.6,2.3,0.1,2.8c-0.5,0.6-1.6,1.3-3.3,2.3c-0.7,0.4-1.3,0.6-1.9,0.7
				c-0.6,0.1-1.2-0.1-1.7-0.4c-0.6-0.4-0.7-0.7-0.4-1.1c0.3-0.4,1.5-1.2,3.6-2.4l1.9-1.1l-7.7-4.5l-1.5,0.9c-3.4,2-5,3.8-4.9,5.5
				c0.2,1.7,1.2,3.2,3,4.5l-3,1.7l3.6,2.1l2.9-1.7c3,1.3,6,1.9,8.8,1.8c2.9-0.1,5.7-1,8.4-2.6c1.7-1,2.9-2,3.5-2.9
				c0.7-1,0.9-1.8,0.9-2.6c-0.1-0.8-0.5-2.1-1.3-3.9c-0.9-2.1-1.4-3.5-1.4-4c0-0.6,0.6-1.2,1.8-1.9c0.7-0.4,1.4-0.7,2-0.7
				c0.6-0.1,1.1,0,1.6,0.3c0.6,0.3,0.8,0.7,0.5,1c-0.2,0.4-1,0.9-2.4,1.7l-1.3,0.7l7.7,4.5c0.7-0.3,1.2-0.6,1.5-0.8
				c2.3-1.3,3.5-2.7,3.5-4.1C140.5,152,139.5,150.5,137.4,149z"/>
			<linearGradient id="SVGID_17_" gradientUnits="userSpaceOnUse" x1="106.3423" y1="166.5019" x2="128.0356" y2="166.5019">
				<stop  offset="0" style="stop-color:#D68024"/>
				<stop  offset="1" style="stop-color:#D59417"/>
			</linearGradient>
			<path class="st16" d="M128,161.5C128,161.5,128,161.5,128,161.5c0,0.2-0.1,0.4-0.2,0.6c-0.1,0.2-0.2,0.4-0.3,0.6
				c-0.1,0.2-0.2,0.4-0.4,0.6c-0.1,0.1-0.1,0.2-0.2,0.3c-0.1,0.1-0.1,0.2-0.2,0.3c0,0-0.1,0.1-0.1,0.1c-0.1,0.1-0.2,0.2-0.3,0.3
				c0,0,0,0-0.1,0.1c-0.1,0.1-0.3,0.3-0.4,0.4c0,0-0.1,0.1-0.1,0.1c-0.1,0.1-0.2,0.2-0.4,0.3c-0.1,0-0.1,0.1-0.2,0.2
				c-0.1,0.1-0.2,0.2-0.3,0.2c-0.1,0.1-0.2,0.1-0.2,0.2c-0.1,0.1-0.2,0.2-0.4,0.2c-0.2,0.1-0.3,0.2-0.5,0.3c-0.3,0.2-0.7,0.4-1,0.5
				c-0.1,0.1-0.2,0.1-0.3,0.2c-0.2,0.1-0.4,0.2-0.7,0.3c-0.1,0.1-0.3,0.1-0.4,0.2c-0.2,0.1-0.4,0.2-0.6,0.3
				c-0.1,0.1-0.3,0.1-0.4,0.2c-0.2,0.1-0.4,0.1-0.6,0.2c-0.2,0.1-0.5,0.1-0.7,0.2c-0.1,0-0.3,0.1-0.4,0.1c-0.3,0.1-0.5,0.1-0.8,0.2
				c-0.1,0-0.2,0-0.3,0.1c-0.4,0.1-0.8,0.1-1.2,0.2c-0.3,0-0.6,0.1-0.9,0.1c-0.2,0-0.5,0-0.7,0c-0.2,0-0.3,0-0.5,0
				c-0.2,0-0.5,0-0.7,0c-0.1,0-0.3,0-0.4,0c-0.2,0-0.4,0-0.6-0.1c-0.1,0-0.3,0-0.4,0c-0.1,0-0.2,0-0.3-0.1c-0.3,0-0.5-0.1-0.8-0.1
				c-0.1,0-0.2,0-0.3-0.1c-0.3-0.1-0.7-0.2-1-0.3c-0.2,0-0.4-0.1-0.5-0.2c-0.2,0-0.3-0.1-0.5-0.1c-0.2-0.1-0.4-0.1-0.6-0.2
				c-0.1-0.1-0.3-0.1-0.4-0.2c-0.3-0.1-0.7-0.3-1-0.4c0,0,0,0,0,0h0l0,0l0,3.2c0.3,0.1,0.6,0.2,0.8,0.4c0,0,0.1,0,0.1,0.1
				c0.1,0.1,0.3,0.1,0.4,0.2c0.2,0.1,0.4,0.2,0.6,0.2c0.2,0,0.3,0.1,0.5,0.1c0.1,0,0.2,0.1,0.4,0.1c0.1,0,0.1,0,0.2,0
				c0.3,0.1,0.7,0.2,1,0.3c0.1,0,0.2,0,0.2,0.1c0,0,0,0,0.1,0c0.3,0.1,0.5,0.1,0.8,0.1c0.1,0,0.2,0,0.3,0.1c0,0,0,0,0,0
				c0.1,0,0.3,0,0.4,0c0.2,0,0.4,0.1,0.6,0.1c0,0,0,0,0,0c0.1,0,0.3,0,0.4,0c0.2,0,0.4,0,0.6,0c0,0,0.1,0,0.1,0c0.2,0,0.3,0,0.5,0
				c0.2,0,0.3,0,0.5,0c0.1,0,0.1,0,0.2,0c0.3,0,0.6,0,0.8-0.1c0,0,0.1,0,0.1,0c0.4,0,0.8-0.1,1.2-0.2c0,0,0,0,0,0
				c0.1,0,0.2,0,0.3-0.1c0.3-0.1,0.5-0.1,0.8-0.2c0.1,0,0.3-0.1,0.4-0.1c0.2-0.1,0.5-0.1,0.7-0.2c0,0,0.1,0,0.1,0
				c0.2-0.1,0.3-0.1,0.5-0.2c0.1-0.1,0.3-0.1,0.4-0.2c0.2-0.1,0.4-0.2,0.6-0.3c0.1-0.1,0.3-0.1,0.4-0.2c0.2-0.1,0.4-0.2,0.7-0.3
				c0.1-0.1,0.2-0.1,0.3-0.2c0.3-0.2,0.7-0.4,1-0.5c0.1-0.1,0.2-0.1,0.3-0.2c0,0,0.1-0.1,0.1-0.1c0.1-0.1,0.3-0.2,0.4-0.2
				c0.1-0.1,0.2-0.1,0.2-0.2c0.1-0.1,0.2-0.2,0.3-0.2c0.1,0,0.1-0.1,0.2-0.1c0.1-0.1,0.2-0.2,0.4-0.3c0,0,0.1-0.1,0.2-0.1
				c0.2-0.1,0.3-0.3,0.4-0.4c0,0,0,0,0,0c0,0,0,0,0.1-0.1c0.1-0.1,0.2-0.2,0.3-0.3c0,0,0.1-0.1,0.1-0.1c0.1-0.1,0.1-0.2,0.2-0.3
				c0,0,0,0,0,0c0.1-0.1,0.1-0.2,0.2-0.3c0.1-0.2,0.2-0.4,0.3-0.5c0,0,0,0,0,0c0.1-0.2,0.2-0.4,0.3-0.6c0,0,0,0,0,0
				c0.1-0.2,0.1-0.4,0.2-0.5c0,0,0,0,0,0c0,0,0,0,0,0c0-0.2,0-0.3,0.1-0.4c0,0,0,0,0-0.1l0-3.2C128,161.2,128,161.3,128,161.5z"/>
		</g>
	</g>
	<linearGradient id="SVGID_18_" gradientUnits="userSpaceOnUse" x1="120.1376" y1="195.4909" x2="120.1376" y2="167.6255">
		<stop  offset="0" style="stop-color:#FFFFFF"/>
		<stop  offset="1" style="stop-color:#FFFFFF;stop-opacity:0"/>
	</linearGradient>
	<path class="st17" d="M86.3,181.2c18.8,11.4,49.3,11.4,68,0c9.3-5.7,14-13.1,14-20.5l0-0.2c0-0.2,0-0.3,0-0.5c0,0.1,0,0.2,0,0.2
		c0,0.2,0,0.5-0.1,0.7c0,0.2-0.1,0.4-0.1,0.6c0,0.2-0.1,0.5-0.1,0.7c0,0.2-0.1,0.4-0.1,0.6c-0.1,0.2-0.1,0.5-0.2,0.7
		c-0.1,0.2-0.1,0.4-0.2,0.6c-0.1,0.2-0.1,0.5-0.2,0.7c-0.1,0.2-0.2,0.4-0.2,0.6c-0.1,0.2-0.2,0.5-0.3,0.7c-0.1,0.2-0.2,0.4-0.3,0.6
		c-0.1,0.2-0.2,0.5-0.4,0.7c-0.1,0.2-0.2,0.4-0.3,0.6c-0.2,0.3-0.3,0.6-0.5,0.9c-0.1,0.2-0.2,0.3-0.3,0.5c-0.2,0.3-0.4,0.6-0.7,0.9
		c-0.1,0.1-0.2,0.3-0.3,0.4c-0.1,0.1-0.1,0.1-0.2,0.2c-0.3,0.3-0.5,0.6-0.8,0.9c-0.1,0.1-0.1,0.2-0.2,0.2c-0.3,0.4-0.7,0.7-1,1
		c-0.1,0.1-0.1,0.1-0.2,0.2c-0.3,0.3-0.5,0.5-0.8,0.8c-0.2,0.2-0.5,0.4-0.7,0.6c-0.2,0.2-0.4,0.4-0.7,0.6c-0.2,0.2-0.5,0.4-0.8,0.6
		c-0.2,0.2-0.5,0.4-0.7,0.5c-0.3,0.2-0.5,0.4-0.8,0.6c-0.3,0.2-0.5,0.3-0.8,0.5c-0.3,0.2-0.6,0.4-0.9,0.6c-0.4,0.2-0.7,0.5-1.1,0.7
		c-0.7,0.4-1.5,0.8-2.2,1.2c-0.2,0.1-0.4,0.2-0.7,0.3c-0.6,0.3-1.2,0.6-1.8,0.8c-0.2,0.1-0.4,0.2-0.6,0.3c-0.8,0.3-1.6,0.7-2.4,1
		c-0.1,0.1-0.3,0.1-0.4,0.2c-0.7,0.3-1.4,0.5-2.1,0.7c-0.3,0.1-0.6,0.2-0.9,0.3c-0.4,0.1-0.8,0.2-1.2,0.4c-0.3,0.1-0.7,0.2-1,0.3
		c-0.4,0.1-0.8,0.2-1.2,0.3c-0.3,0.1-0.7,0.2-1,0.3c-0.4,0.1-0.8,0.2-1.2,0.3c-0.3,0.1-0.7,0.2-1,0.2c-0.4,0.1-0.8,0.2-1.3,0.2
		c-0.3,0.1-0.6,0.1-1,0.2c-0.9,0.2-1.8,0.3-2.7,0.4c-0.1,0-0.3,0-0.4,0c-0.8,0.1-1.6,0.2-2.4,0.3c-0.3,0-0.6,0.1-0.9,0.1
		c-0.5,0-1,0.1-1.5,0.1c-0.3,0-0.6,0-1,0.1c-0.5,0-1.1,0.1-1.6,0.1c-0.3,0-0.6,0-0.9,0c-0.5,0-0.9,0-1.4,0c-0.3,0-0.7,0-1,0
		c-0.5,0-1,0-1.5,0c-0.3,0-0.6,0-0.9,0c-0.5,0-0.9,0-1.4-0.1c-0.3,0-0.6,0-1,0c-0.5,0-1-0.1-1.5-0.1c-0.3,0-0.6,0-0.8-0.1
		c-0.6,0-1.2-0.1-1.8-0.2c-0.2,0-0.3,0-0.5-0.1c-0.8-0.1-1.5-0.2-2.3-0.3c-0.1,0-0.3,0-0.4-0.1c-0.6-0.1-1.3-0.2-1.9-0.3
		c-0.3,0-0.5-0.1-0.8-0.2c-0.5-0.1-1-0.2-1.5-0.3c-0.3-0.1-0.5-0.1-0.8-0.2c-0.5-0.1-1.1-0.2-1.6-0.4c-0.3-0.1-0.6-0.1-0.9-0.2
		c-0.5-0.1-1-0.3-1.5-0.4c-0.3-0.1-0.5-0.2-0.8-0.2c-0.8-0.2-1.5-0.5-2.3-0.7c-0.1,0-0.3-0.1-0.4-0.1c-0.9-0.3-1.7-0.6-2.5-0.9
		c-0.3-0.1-0.7-0.3-1-0.4c-0.3-0.1-0.5-0.2-0.8-0.3c-0.4-0.2-0.7-0.3-1.1-0.5c-0.2-0.1-0.5-0.2-0.7-0.3c-0.4-0.2-0.8-0.4-1.2-0.6
		c-0.2-0.1-0.4-0.2-0.6-0.3c-0.6-0.3-1.2-0.6-1.7-1c-9.2-5.3-13.9-12.2-14.2-19.1C71.8,167.5,76.5,175.3,86.3,181.2z"/>
</g>
</svg>
